<?xml version="1.0" encoding="UTF-8" standalone="no"?>
<!-- Generator: Adobe Illustrator 12.0.0, SVG Export Plug-In . SVG Version: 6.00 Build 51448)  -->

<svg
   xmlns:dc="http://purl.org/dc/elements/1.1/"
   xmlns:cc="http://creativecommons.org/ns#"
   xmlns:rdf="http://www.w3.org/1999/02/22-rdf-syntax-ns#"
   xmlns:svg="http://www.w3.org/2000/svg"
   xmlns="http://www.w3.org/2000/svg"
   xmlns:sodipodi="http://sodipodi.sourceforge.net/DTD/sodipodi-0.dtd"
   xmlns:inkscape="http://www.inkscape.org/namespaces/inkscape"
   version="1.1"
   id="Japan"
   width="1299.9578"
   height="555.21185"
   viewBox="0 0 1299.9578 555.21186"
   overflow="visible"
   enable-background="new 0 0 974.748 1082.938"
   xml:space="preserve"
   sodipodi:docname="Map_of_Japan_rot.svg"
   inkscape:version="0.92.2 5c3e80d, 2017-08-06"
   style="overflow:visible"><metadata
     id="metadata218"><rdf:RDF><cc:Work
         rdf:about=""><dc:format>image/svg+xml</dc:format><dc:type
           rdf:resource="http://purl.org/dc/dcmitype/StillImage" /><dc:title></dc:title></cc:Work></rdf:RDF></metadata><defs
     id="defs216" /><sodipodi:namedview
     pagecolor="#ffffff"
     bordercolor="#666666"
     borderopacity="1"
     objecttolerance="10"
     gridtolerance="10"
     guidetolerance="10"
     inkscape:pageopacity="0"
     inkscape:pageshadow="2"
     inkscape:window-width="1680"
     inkscape:window-height="934"
     id="namedview214"
     showgrid="false"
     inkscape:zoom="1"
     inkscape:cx="539.90655"
     inkscape:cy="291.05699"
     inkscape:window-x="0"
     inkscape:window-y="1"
     inkscape:window-maximized="1"
     inkscape:current-layer="layer2"
     fit-margin-top="0"
     fit-margin-left="0"
     fit-margin-right="0"
     fit-margin-bottom="0" /><path
     id="AREA"
     d="m 17.826778,127.70132 c 0,0 183.934322,108.52207 405.694002,71.13978 C 645.27882,161.45801 765.74207,1.6230893 765.74207,1.6230893"
     inkscape:connector-curvature="0"
     style="fill:none;stroke:#040000;stroke-width:1.73018682" /><g
     id="g211"
     transform="rotate(37.699465,914.15959,618.13556)"
     inkscape:label="Geography"
     style="display:inline"><g
       id="Hopporyodo"
       style="fill:#cdde87"
       transform="rotate(-5.0638314,484.16029,507.85173)"><path
         d="m 897.96,124.791 h 5.756 l 2.877,-5.756 8.635,-5.036 1.438,-6.476 9.354,-10.073 2.158,-7.915 7.916,0.719 6.475,-5.756 11.512,-12.231 11.513,-7.915 h 5.037 l 3.598,-2.159 -0.721,-10.073 -2.877,0.72 -9.354,7.195 -7.915,7.914 -10.793,2.159 -5.756,-6.475 v 8.634 l -7.914,7.915 -0.721,1.439 -5.757,2.159 -3.596,8.634 -4.318,2.878 -1.438,5.756 -5.756,2.158 2.158,7.196 -6.477,2.878 v 2.159 l -2.877,0.719 0.719,2.878 -2.158,1.439 0.719,5.756 z"
         id="path3"
         style="fill:#cdde87;stroke:#040000"
         inkscape:connector-curvature="0" /><path
         d="m 843.276,169.4 4.316,3.598 h 2.158 v -7.915 l 2.158,-3.597 5.037,-2.878 3.598,-6.476 1.439,-4.317 5.757,-4.317 1.439,-5.037 6.475,-2.158 5.037,-3.598 5.035,-2.878 1.439,-4.317 -6.475,2.159 -11.512,-3.598 -7.916,13.671 v 2.878 l -3.599,2.159 -1.438,7.195 -4.318,3.598 -0.719,2.159 -7.914,9.354 v 4.315 z"
         id="path5"
         style="fill:#cdde87;stroke:#040000"
         inkscape:connector-curvature="0" /><path
         d="m 892.923,166.522 2.877,2.159 9.354,-6.476 -3.596,-3.597 -5.037,1.438 -3.598,3.598 z"
         id="path7"
         style="fill:#cdde87;stroke:#040000"
         inkscape:connector-curvature="0" /><path
         d="m 873.496,183.791 h 2.877 v -3.597 h -2.877 z"
         id="path9"
         style="fill:#cdde87;stroke:#040000"
         inkscape:connector-curvature="0" /></g><g
       id="g4656"
       inkscape:label="Region-Hokkaido"><g
         transform="rotate(-5.0638314,484.16029,507.85173)"
         style="fill:#cdde87"
         id="Hokkaido"><path
           inkscape:connector-curvature="0"
           style="fill:#cdde87;stroke:#040000"
           id="path12"
           d="m 625.984,319.777 2.879,-0.719 v -2.159 l 4.316,-3.598 4.317,-1.439 -0.719,-6.476 7.195,-5.756 2.877,-4.317 3.598,2.158 12.23,4.317 6.477,-5.756 -3.598,-5.036 -7.195,-2.159 -8.633,-10.072 -3.598,-0.72 -4.318,2.159 -6.475,-7.195 -2.878,-0.72 -2.879,-4.317 v -2.159 l 2.158,-2.158 2.879,-8.634 2.878,-2.878 5.037,-0.72 4.316,0.72 3.598,2.878 5.037,5.756 2.877,5.036 h 3.598 l 2.879,-4.317 12.95,-8.634 17.268,-5.036 42.451,24.463 20.865,11.512 2.879,-8.634 v -12.232 l 2.878,-8.634 3.598,-2.878 4.318,-7.914 20.145,-20.146 5.037,-3.598 7.915,0.719 2.158,1.439 10.793,-0.72 0.719,-5.756 2.158,-0.72 2.158,2.159 5.757,1.439 5.756,-6.476 1.439,-4.317 12.951,-3.598 2.877,-3.598 7.916,-6.475 v -2.878 l -3.598,-1.439 -5.756,7.195 -10.074,2.878 -1.438,-4.317 2.877,-0.719 -5.035,-12.232 3.596,1.439 v -3.597 l -6.475,-0.72 -3.598,-5.036 -0.719,-7.195 2.877,-14.39 5.037,-3.598 v -10.793 l -2.879,-0.719 -8.634,11.512 -5.037,5.756 -7.195,8.634 -9.352,0.72 -6.477,-2.159 -6.476,-8.634 -2.158,4.317 -3.598,-5.037 -11.512,2.878 -4.318,-2.878 v -3.598 l -9.353,-3.598 -17.27,-12.951 -12.231,-11.512 -9.354,-12.231 -11.512,-15.11 -10.072,-7.915 -8.634,-8.634 h -2.16 v 3.598 l -8.633,0.719 -2.158,3.598 0.719,7.195 -2.158,2.158 0.719,6.476 7.916,12.232 2.877,9.354 v 11.512 l -1.439,9.354 -4.316,5.756 2.879,8.634 -0.721,5.756 -1.439,4.317 -1.438,5.756 -7.916,5.756 -1.438,3.598 0.719,7.195 4.316,13.67 -2.158,6.476 -8.634,7.195 -5.756,-0.719 -3.598,-3.598 -5.756,1.439 -7.195,-2.878 -3.598,-4.317 -7.195,-0.719 -3.599,2.158 0.721,5.037 6.476,10.792 v 4.317 l -5.036,4.316 -1.439,2.159 -2.158,6.476 -4.318,-2.878 -4.316,5.036 -8.633,3.598 -1.439,4.317 0.719,10.073 -4.316,5.756 5.037,7.915 6.475,4.317 5.037,8.633 v 6.476 l -5.037,13.671 2.158,9.354 z" /><path
           inkscape:connector-curvature="0"
           style="fill:#cdde87;stroke:#040000"
           id="path14"
           d="m 661.96,100.327 h 5.037 l -0.721,-4.317 -2.877,-2.878 -4.316,2.159 v 2.158 z" /><path
           inkscape:connector-curvature="0"
           style="fill:#cdde87;stroke:#040000"
           id="path16"
           d="m 653.327,89.535 2.158,-2.878 V 82.34 l -3.598,0.719 z" /><path
           inkscape:connector-curvature="0"
           style="fill:#cdde87;stroke:#040000"
           id="path18"
           d="m 597.923,273.729 -1.438,7.195 -2.158,3.598 -2.879,-3.598 1.439,-4.317 z" /></g></g><g
       id="g4660"
       inkscape:label="Region-Tohoku"
       style="display:inline"><g
         transform="rotate(-5.0638314,484.16029,507.85173)"
         style="fill:#cdde87"
         id="Fukushima"><path
           inkscape:connector-curvature="0"
           style="fill:#cdde87;stroke:#040000"
           id="path36"
           d="m 613.033,527.715 20.146,3.598 2.878,-1.439 -1.438,-7.915 2.878,-2.878 8.635,1.439 1.439,2.159 7.914,0.719 2.877,5.757 6.477,-5.037 h 2.877 l 4.317,10.793 v 10.074 l 0.721,11.511 1.438,5.037 -1.438,2.879 -1.439,2.877 v 7.915 l -7.196,8.634 -7.914,-2.158 -2.158,-2.158 -7.195,6.475 -5.037,-4.316 h -2.877 l -2.879,-7.914 -6.476,-5.037 -3.598,-0.719 h -7.195 l -12.23,7.194 -2.879,2.158 -7.194,3.598 h -2.879 l -2.158,-1.438 1.439,-2.159 v -5.757 l -3.598,-6.475 -1.439,-2.879 0.721,-2.158 0.719,-2.878 -1.439,-2.158 0.721,-3.598 12.23,-5.036 4.317,-2.159 -1.439,-2.158 v -2.878 l 3.598,-1.439 2.16,-5.756 z" /></g><g
         id="Akita"
         style="fill:#cdde87"
         transform="rotate(-5.0638314,484.16029,507.85173)"><path
           d="m 617.352,376.618 10.072,-1.439 h 3.598 l 3.598,-1.439 12.952,2.878 5.035,-3.597 9.354,2.158 v 8.634 l -4.316,2.878 v 5.756 l -1.439,2.158 1.439,5.756 0.719,8.634 -2.158,5.037 v 7.195 l -2.877,8.634 -4.318,2.878 1.439,6.476 5.756,6.476 0.719,2.878 -2.158,2.159 1.439,4.317 0.719,5.036 -3.596,0.72 -0.721,2.159 -5.035,2.878 -6.477,-5.757 -10.073,-2.878 -9.354,-5.036 h -4.316 l 6.475,-14.39 0.719,-17.268 -2.877,-5.037 v -5.756 h -10.793 l -2.158,-2.159 -0.719,-5.036 h 2.877 l 2.879,2.158 3.598,-2.878 v -2.878 l 3.598,-5.037 v -6.476 l 1.438,-3.598 z"
           id="path30"
           style="fill:#cdde87;stroke:#040000"
           inkscape:connector-curvature="0" /></g><g
         id="Aomori"
         style="fill:#cdde87"
         transform="rotate(-5.0638314,484.16029,507.85173)"><path
           d="m 617.352,376.618 v -4.317 l -2.879,-1.439 1.439,-5.756 4.316,-4.317 10.072,-2.878 2.16,-11.512 2.158,-2.158 v -2.878 l -2.158,-1.439 1.438,-9.354 6.477,2.159 4.316,-0.72 4.316,18.708 4.318,2.878 5.756,-3.597 v -6.476 l 6.475,3.598 3.598,3.598 3.599,-2.159 -0.721,-6.476 3.598,-4.317 -0.719,-6.476 -4.317,-3.597 -5.037,4.317 -6.475,0.72 -5.756,2.878 v -7.915 l 1.438,-7.195 4.318,-6.476 h 5.756 l 8.634,7.915 8.635,-1.439 -2.16,15.109 2.16,4.317 v 15.83 l 4.316,12.231 6.475,2.878 0.721,2.159 -3.598,1.439 -0.721,2.158 -11.512,2.878 -12.95,7.195 -2.879,-2.159 v -9.354 l -8.633,-1.439 -5.756,3.598 -12.952,-3.598 -4.318,2.159 -8.633,-0.72 z"
           id="path21"
           style="fill:#cdde87;stroke:#040000"
           inkscape:connector-curvature="0" /></g><g
         id="Yamagata"
         style="fill:#cdde87"
         transform="rotate(-5.0638314,484.16029,507.85173)"><path
           d="m 616.631,451.447 5.037,0.72 9.354,5.036 10.073,2.878 5.756,5.037 0.721,2.878 3.596,5.756 -1.438,6.476 -2.158,-0.72 -1.439,2.878 v 2.159 l 2.158,1.439 0.719,7.915 -5.035,8.634 0.719,5.036 -2.879,1.439 -1.438,3.598 -4.318,2.158 v 2.878 l 1.439,2.159 -2.878,2.158 1.438,7.915 -2.878,1.439 -20.865,-3.598 -5.037,-3.598 3.598,-10.792 -2.158,-1.439 2.879,-5.037 h 2.877 l 3.598,-3.598 v -2.878 l -5.037,-4.317 h -2.877 l -0.719,-6.476 -5.038,-4.317 7.196,-9.354 5.756,-18.708 z"
           id="path33"
           style="fill:#cdde87;stroke:#040000"
           inkscape:connector-curvature="0" /></g><g
         id="Miyagi"
         style="fill:#cdde87"
         transform="rotate(-5.0638314,484.16029,507.85173)"><path
           d="m 637.497,519.081 8.635,1.439 1.439,2.159 7.914,0.719 2.877,5.757 6.477,-5.037 h 2.877 l -0.719,-10.792 5.036,-8.634 v -7.195 l 7.914,-2.159 1.439,-2.878 h 4.318 l 6.475,7.196 1.439,-1.439 v -6.476 h -2.879 l 2.158,-5.756 -2.158,-1.439 0.721,-3.598 -0.721,-6.476 2.879,-1.439 0.719,-4.317 0.719,-4.317 2.879,1.439 -1.439,-7.195 -5.035,-2.159 -6.477,12.951 -2.158,-1.439 -7.195,2.878 -2.158,-3.597 -16.55,-7.196 -2.877,0.72 -0.719,2.159 -5.756,2.878 v 2.158 l 3.596,6.476 -0.719,5.756 -2.877,-0.72 -1.439,2.878 v 2.159 l 2.158,1.439 v 4.317 l 0.719,3.598 -2.877,4.317 -1.439,5.036 v 4.317 l -2.879,1.439 -0.719,3.598 -4.316,2.158 z"
           id="path27"
           style="fill:#cdde87;stroke:#040000"
           inkscape:connector-curvature="0" /></g><g
         id="Iwate"
         style="fill:#cdde87"
         transform="rotate(-5.0638314,484.16029,507.85173)"><path
           d="m 657.644,460.081 16.548,7.196 2.16,3.597 6.475,-2.158 2.158,0.719 5.756,-11.512 2.879,-0.72 2.877,1.439 5.038,1.438 v -3.597 l 3.598,-0.719 0.719,-3.598 1.439,-2.159 -0.721,-3.597 3.598,-2.159 -2.158,-1.439 2.158,-2.878 -1.439,-2.158 v -3.598 l 4.318,-2.878 -2.16,-1.439 2.16,-6.476 v -2.878 l -2.16,-1.439 v -6.476 l -1.438,-4.317 -0.721,-4.317 v -2.878 l -1.438,-2.878 -0.721,-2.159 -3.596,-1.439 0.719,-4.317 -2.158,-2.158 v -5.756 l -7.915,-10.074 -2.879,2.159 -2.158,2.158 -12.23,2.878 -12.233,6.476 -2.158,-2.159 -4.316,2.878 v 5.756 l -1.439,2.158 1.439,6.476 0.719,7.195 -2.158,6.476 v 6.475 l -2.877,8.634 -4.318,2.878 1.439,6.476 5.756,6.476 v 2.878 l -1.439,2.159 1.439,3.597 z"
           id="path24"
           style="fill:#cdde87;stroke:#040000"
           inkscape:connector-curvature="0" /></g></g><g
       id="g4678"
       inkscape:label="Region-Kanto"
       style="display:inline"><g
         inkscape:label="Gunma"
         transform="rotate(-5.0638314,484.16029,507.85173)"
         style="fill:#cdde87"
         id="Gumma"><path
           inkscape:connector-curvature="0"
           style="fill:#cdde87;stroke:#040000"
           id="path45"
           d="m 592.888,580.239 -2.158,-1.438 -5.756,-1.439 h -3.598 l -2.879,6.476 -3.598,4.317 h -2.877 l -1.439,1.438 -2.159,5.756 -3.598,0.72 -3.598,-0.72 -7.195,6.477 v 8.634 h 4.317 l 5.036,2.158 -1.438,6.476 0.72,7.914 0.719,5.037 1.439,3.598 3.598,1.439 5.037,-5.756 6.476,-2.158 2.879,-2.16 0.719,-4.316 4.316,-2.158 h 5.037 l 5.756,2.879 7.915,0.719 h 3.598 v -2.879 l -2.158,-2.877 -6.478,-0.719 -2.877,-7.196 v -5.036 l 1.439,-6.477 h -4.318 l 0.721,-4.317 -1.439,-8.634 z" /></g><g
         id="Tochigi"
         style="fill:#cdde87"
         transform="rotate(-5.0638314,484.16029,507.85173)"><path
           d="m 592.888,580.239 h 3.598 l 7.914,-2.878 2.878,-2.878 11.512,-7.195 7.195,0.721 3.598,0.719 6.476,5.037 2.879,7.194 -1.439,3.598 0.721,8.634 -0.721,11.513 -4.317,5.756 -2.158,0.719 -13.67,7.196 H 608 l -6.478,-0.719 -2.877,-6.478 v -5.035 l 2.158,-7.196 h -5.037 l 0.721,-2.878 v -2.158 l -1.439,-7.915 z"
           id="path42"
           style="fill:#cdde87;stroke:#040000"
           inkscape:connector-curvature="0" /></g><g
         id="Ibaraki"
         style="fill:#cdde87"
         transform="rotate(-5.0638314,484.16029,507.85173)"><path
           d="m 623.107,637.081 2.877,2.877 8.635,0.721 1.438,2.877 h 7.916 l 4.316,-3.598 h 6.475 l 2.879,1.439 5.756,5.756 h 3.598 l -10.793,-18.707 -0.719,-2.877 -2.158,-2.158 0.719,-7.916 2.877,-2.878 v -2.158 l -1.438,-2.878 2.158,-4.317 4.316,-12.951 2.158,-6.476 -8.633,-2.158 -1.439,-2.158 -7.195,6.475 -5.037,-4.316 h -2.877 l -1.439,2.878 v 8.634 l -0.719,2.158 1.439,9.354 -4.318,6.475 h -2.159 l -13.67,7.196 h -2.877 l -7.195,0.719 2.158,2.158 2.158,1.439 0.719,6.477 7.195,3.596 z"
           id="path39"
           style="fill:#cdde87;stroke:#040000"
           inkscape:connector-curvature="0" /></g><g
         id="Saitama"
         style="display:inline;fill:#cdde87"
         transform="rotate(-5.0638314,484.16029,507.85173)"><path
           d="m 567.704,636.36 5.037,-5.035 6.477,-2.158 3.598,-2.879 v -4.316 l 4.316,-2.158 5.756,0.719 5.756,2.879 10.794,0.719 0.719,-2.879 2.158,1.439 0.719,6.477 6.477,3.596 2.877,4.318 0.721,10.072 h -7.914 l -5.037,1.439 h -6.477 l -7.915,-0.72 -12.949,-4.317 -2.879,1.439 -7.914,-0.719 -2.879,-2.879 z"
           id="path48"
           style="fill:#cdde87;stroke:#040000"
           inkscape:connector-curvature="0" /></g><g
         id="Kanagawa"
         style="overflow:visible;fill:#cdde87"
         transform="rotate(-10.127663,484.16019,507.85176)"><path
           d="m 588.571,656.508 11.512,2.158 h 10.073 l 5.037,-2.158 h 8.633 l -3.598,1.439 -2.158,2.158 v 3.598 l -4.316,3.598 -0.721,7.914 4.318,2.158 -0.721,4.317 -4.316,2.879 v -5.037 l -2.158,-3.599 -10.073,-1.439 -4.318,2.879 -3.598,1.439 v 3.599 l -2.877,3.596 -7.914,-3.596 0.719,-2.879 v -6.476 l -2.877,-2.16 v -2.877 l 5.035,-2.879 3.598,-2.158 0.721,-2.158 v -4.316 z"
           id="path63"
           style="fill:#cdde87;stroke:#040000"
           inkscape:connector-curvature="0" /></g><g
         id="Tokyo"
         style="overflow:visible;fill:#cdde87"
         transform="rotate(-10.127663,484.16019,507.85176)"><path
           d="m 579.937,644.276 2.879,-1.439 12.949,4.316 7.195,1.439 h 7.196 l 4.316,-1.439 h 7.914 l 1.439,9.354 -7.914,0.719 -5.756,1.439 h -10.794 l -10.072,-1.439 -0.719,-2.158 -2.16,-2.158 -5.756,-5.037 z"
           id="path54"
           style="fill:#cdde87;stroke:#040000"
           inkscape:connector-curvature="0" /><path
           d="m 600.802,711.19 h 5.037 v -2.16 l -5.037,-3.596 z"
           id="path56"
           style="fill:#cdde87;stroke:#040000"
           inkscape:connector-curvature="0" /><path
           d="m 594.327,717.666 v 2.879 l 0.719,-2.879 z"
           id="path58"
           style="fill:#cdde87;stroke:#040000"
           inkscape:connector-curvature="0" /><path
           d="m 597.923,721.982 2.16,-1.438 -2.879,1.438 z"
           id="path60"
           style="fill:#cdde87;stroke:#040000"
           inkscape:connector-curvature="0" /></g><g
         id="Chiba"
         style="overflow:visible;fill:#cdde87"
         transform="rotate(-10.127663,484.16019,507.85176)"><path
           d="m 623.826,656.508 -0.719,-9.354 -0.721,-10.072 2.879,2.877 9.354,0.721 0.72,2.877 8.635,-0.719 4.316,-2.879 h 6.475 l 2.158,0.721 6.477,6.475 h 2.877 l 2.159,4.317 -7.915,0.721 -7.914,5.756 -2.158,8.633 -0.719,10.074 -2.879,5.757 -2.158,3.596 -10.793,2.16 -5.757,5.756 -0.719,2.158 -2.879,2.158 -2.877,0.719 v -5.756 l 1.439,-5.756 -1.439,-5.035 1.439,-4.319 -2.158,-0.719 v -2.879 l 12.95,-15.109 v -2.158 l -4.317,-3.598 z"
           id="path51"
           style="fill:#cdde87;stroke:#040000"
           inkscape:connector-curvature="0" /></g></g><g
       id="g4734"
       inkscape:label="Region-Chubu"><g
         transform="rotate(-5.0638314,484.16029,507.85173)"
         style="fill:#cdde87"
         id="Aichi"><path
           inkscape:connector-curvature="0"
           style="fill:#cdde87;stroke:#040000"
           id="path92"
           d="m 469.852,684.569 1.439,-0.721 v -2.158 l 5.037,-7.196 10.072,-1.438 7.915,4.316 10.073,2.878 h 8.635 l 12.23,1.439 0.72,5.756 -9.353,14.391 -5.756,3.598 v 9.354 h -5.757 l -10.073,4.317 h -3.598 v -2.158 l 10.792,-6.478 -0.719,-2.877 -10.793,0.719 -2.158,-1.439 -0.72,-4.316 -2.158,5.037 1.438,5.036 -5.036,-2.159 v -4.316 l -2.158,-3.598 v -3.598 l 4.316,-5.035 -2.878,-2.16 -5.756,2.16 z" /></g><g
         id="Nigata"
         style="fill:#cdde87"
         transform="rotate(-5.0638314,484.16029,507.85173)"><path
           d="m 569.862,589.593 2.16,-1.438 h 2.877 l 3.598,-4.317 2.879,-6.476 h 3.598 l 6.475,1.439 1.439,-2.158 -0.721,-5.757 -4.316,-8.635 1.439,-5.036 -2.158,-2.158 1.439,-4.316 12.23,-4.317 4.317,-2.159 -2.159,-2.158 v -2.878 l 4.317,-2.159 2.16,-5.756 3.596,-2.878 -5.756,-4.317 3.598,-10.792 -2.158,-1.439 2.879,-5.037 h 2.158 l 3.598,-3.598 v -2.878 l -4.318,-4.317 h -2.877 l -0.719,-7.195 -5.038,-3.598 -1.439,3.598 -5.037,10.073 v 13.671 l -23.023,16.549 -3.598,3.597 -2.878,12.232 -7.195,6.475 -2.878,6.476 -11.512,10.074 h -5.756 l -9.354,5.756 -5.036,4.316 -6.476,2.878 2.159,7.914 4.316,-3.597 1.439,-2.878 h 5.756 l 2.877,5.036 10.074,-2.878 3.598,-4.317 3.597,-3.597 h 4.317 l 5.036,6.475 z"
           id="path66"
           style="fill:#cdde87;stroke:#040000"
           inkscape:connector-curvature="0" /><path
           d="m 543.961,531.313 7.195,-0.72 7.194,-7.195 0.72,-7.195 -4.316,1.439 v -6.475 l 1.438,-3.598 -0.72,-5.756 -8.634,8.634 -2.158,8.634 4.317,2.878 v 2.878 z"
           id="path68"
           style="fill:#cdde87;stroke:#040000"
           inkscape:connector-curvature="0" /></g><g
         id="Toyama"
         style="fill:#cdde87"
         transform="rotate(-5.0638314,484.16029,507.85173)"><path
           d="m 519.497,580.239 2.158,8.634 0.721,2.878 v 5.756 l -5.037,8.636 v 2.878 l -2.158,4.315 -11.513,-2.877 -10.792,0.719 -3.598,4.317 -3.598,5.037 -2.159,-3.598 h -5.036 l -0.72,-7.195 1.439,-2.878 0.72,-15.829 2.158,-5.037 2.878,-2.158 0.72,-2.878 h 5.036 v 8.634 l 2.159,3.598 9.353,0.72 2.879,-1.439 4.317,-8.634 4.316,-3.598 h 5.757 z"
           id="path71"
           style="fill:#cdde87;stroke:#040000"
           inkscape:connector-curvature="0" /></g><g
         id="Ishikawa"
         style="display:inline;fill:#cdde87"
         transform="rotate(-5.0638314,484.16029,507.85173)"><path
           d="m 490.717,580.959 h -5.036 l -0.72,2.878 -2.878,2.158 -2.158,5.037 -0.72,16.549 -1.439,2.158 0.72,7.195 -0.72,4.316 0.72,3.598 -2.158,1.439 -0.72,4.316 -5.037,2.158 -1.439,-4.316 -3.598,-1.439 h -6.476 l -3.598,-3.596 -2.878,-1.439 10.792,-8.636 8.634,-15.829 3.598,-3.597 2.878,-10.073 -2.158,-2.878 0.72,-7.194 -2.878,-5.756 1.439,-3.598 0.72,-5.037 7.194,-3.598 h 4.317 l 14.39,-7.915 2.879,4.317 -4.317,4.316 -0.72,4.318 -3.598,2.158 -2.158,-0.721 -5.036,5.758 -4.317,-1.439 -1.439,5.756 3.598,3.598 2.878,-0.72 z"
           id="path74"
           style="fill:#cdde87;stroke:#040000"
           inkscape:connector-curvature="0" /></g><g
         id="Fukui"
         style="fill:#cdde87"
         transform="rotate(-5.0638314,484.16029,507.85173)"><path
           d="m 452.583,621.972 2.878,1.439 2.878,3.596 h 6.476 l 3.598,1.439 2.158,5.037 7.195,11.512 -0.719,5.037 -10.073,1.438 h -8.635 l -5.036,5.756 -2.159,0.721 -1.439,2.158 -2.878,2.158 -12.231,5.037 -1.439,7.193 -2.159,1.439 -2.878,-2.158 -10.073,-2.158 -1.439,-3.598 -1.439,-6.475 2.878,0.719 2.158,0.719 0.72,2.879 h 2.878 v -1.439 h 2.159 v 2.879 l 3.597,-0.721 v -3.598 l 2.159,0.721 2.159,-1.439 v -2.879 l 3.598,-0.719 3.597,-2.158 v -3.598 h 2.878 l 2.878,2.879 -0.719,-7.196 -5.037,-10.793 v -2.877 l 7.195,-10.793 z"
           id="path77"
           style="fill:#cdde87;stroke:#040000"
           inkscape:connector-curvature="0" /></g><g
         id="Yamanashi"
         style="fill:#cdde87"
         transform="rotate(-5.0638314,484.16029,507.85173)"><path
           d="m 568.424,641.397 2.878,2.879 h 8.635 l 0.719,3.597 7.916,6.477 v 2.877 3.598 l -0.721,2.158 -9.354,5.037 v 2.158 h -3.598 l -5.037,1.439 h -5.036 l -2.878,-2.158 h -3.598 v 11.513 l -2.878,2.877 -3.598,-4.316 -0.719,-3.599 h -4.317 v -5.756 l -0.72,-4.316 v -5.756 l -2.158,-2.158 v -5.037 -6.476 l 7.914,-6.477 2.879,1.439 6.475,1.439 z"
           id="path80"
           style="fill:#cdde87;stroke:#040000"
           inkscape:connector-curvature="0" /></g><g
         id="Nagano"
         style="fill:#cdde87"
         transform="rotate(-5.0638314,484.16029,507.85173)"><path
           d="m 521.655,588.154 5.037,-2.878 0.719,-2.878 h 6.477 l 2.158,5.036 10.793,-2.878 7.194,-7.914 h 4.317 l 5.036,7.194 6.476,5.756 -1.438,5.756 -4.317,0.72 -2.878,-0.72 -7.914,7.196 0.719,7.194 h 3.598 l 5.756,2.878 -1.438,7.196 0.72,12.23 2.158,3.598 2.878,1.439 0.72,3.598 -7.195,2.158 -6.475,-1.439 -2.879,-1.439 -7.914,6.477 v 6.476 5.037 l -2.158,0.719 -2.159,7.914 -0.719,6.477 -4.318,4.316 -9.354,4.317 -12.23,-1.439 2.158,-8.634 2.158,-2.879 -0.719,-4.316 -2.879,-2.158 v -2.879 l -3.598,-5.756 -5.036,-5.756 -0.72,-2.878 5.756,-3.598 3.598,-4.316 1.439,-3.598 -1.439,-7.914 2.879,-5.756 -0.721,-3.598 -0.719,-3.599 2.158,-3.597 v -2.878 l 5.037,-8.636 z"
           id="path83"
           style="fill:#cdde87;stroke:#040000"
           inkscape:connector-curvature="0" /></g><g
         id="Gifu"
         style="fill:#cdde87"
         transform="rotate(-5.0638314,484.16029,507.85173)"><path
           d="m 453.303,657.227 5.036,-5.035 7.915,-0.721 10.073,-1.438 1.438,-5.756 -7.914,-11.514 5.756,-2.877 v -3.598 l 2.878,-1.439 -0.72,-3.598 v -4.316 h 5.756 l 2.159,3.598 3.598,-5.757 2.878,-3.598 11.512,-0.719 11.513,2.877 1.439,6.478 -3.598,6.475 1.438,7.195 -0.72,3.598 -4.316,5.035 -5.037,2.879 0.72,2.158 5.036,6.476 3.598,5.037 v 3.598 l 2.879,2.877 0.719,3.598 -2.158,2.879 -2.158,8.634 h -8.635 l -10.073,-2.878 -7.915,-4.316 -10.072,1.438 -5.037,7.196 v 2.879 h -2.159 l -2.878,-2.879 -4.317,-0.719 -1.439,-10.794 z"
           id="path86"
           style="fill:#cdde87;stroke:#040000"
           inkscape:connector-curvature="0" /></g><g
         id="Shizuoka"
         style="fill:#cdde87"
         transform="rotate(-5.0638314,484.16029,507.85173)"><path
           d="m 525.253,681.69 8.635,-5.036 5.037,-3.598 0.719,-6.477 2.878,-7.914 1.439,-0.719 1.439,2.158 0.719,5.756 0.72,5.035 v 5.037 h 3.598 l 0.72,3.599 4.316,4.316 2.878,-2.877 v -11.513 h 3.598 l 2.878,2.158 h 5.036 l 4.318,-1.439 h 4.316 l 2.879,2.879 v 6.476 2.158 l 7.195,4.316 -0.721,8.635 2.158,4.316 -7.193,11.512 v 4.318 h -3.598 l -2.158,2.878 h -2.16 l -1.438,-7.196 -0.72,-17.268 4.318,-0.719 -5.037,-5.756 -7.196,0.719 -4.316,4.316 -0.721,5.037 -7.194,2.879 -2.878,9.352 -2.878,2.16 -1.438,6.476 -7.196,-2.878 -7.195,0.72 -3.598,2.158 -8.633,-2.878 h -7.914 v -9.354 l 5.756,-4.318 9.353,-14.389 z"
           id="path89"
           style="fill:#cdde87;stroke:#040000"
           inkscape:connector-curvature="0" /></g></g><g
       id="g4828"
       inkscape:label="Region-Kansai"><g
         transform="rotate(-5.0638314,484.16029,507.85173)"
         style="fill:#cdde87"
         id="Mie"><path
           inkscape:connector-curvature="0"
           style="fill:#cdde87;stroke:#040000"
           id="path95"
           d="m 461.937,680.251 4.317,1.439 2.159,2.879 h 2.158 l 4.317,8.633 -2.158,3.598 -1.439,8.635 -4.317,3.596 -0.72,7.196 7.195,5.756 5.756,3.598 5.756,3.598 -0.72,7.914 -5.036,1.439 1.438,-2.879 h -7.195 l -11.512,5.756 h -4.317 l -1.439,1.44 v 3.598 l -3.598,1.439 0.72,7.914 -7.915,5.756 -3.597,10.072 -7.915,-6.475 0.72,-5.037 4.317,-2.877 v -4.316 l 5.756,-4.318 v -9.354 l 0.719,-4.316 -2.158,-2.158 v -4.316 l 6.476,-0.721 2.159,-1.438 -2.159,-5.037 -3.598,-0.719 -2.878,-3.598 v -5.038 l -2.159,-1.439 1.439,-3.598 3.598,-4.316 h 6.476 l 3.598,-2.877 2.158,-4.318 2.159,-1.438 v -7.195 z" /></g><g
         transform="rotate(-5.0638314,484.16029,507.85173)"
         style="fill:#cdde87"
         id="Shiga"><path
           inkscape:connector-curvature="0"
           style="fill:#cdde87;stroke:#040000"
           id="path98"
           d="m 430.998,675.934 2.159,-1.439 0.72,-7.193 12.951,-5.037 2.878,-2.158 1.439,-2.158 h 2.159 l 7.195,12.949 1.439,10.075 -1.439,5.756 v 7.914 l -2.159,0.719 -2.158,4.318 -3.598,2.877 h -6.476 l -4.317,5.037 -5.037,-5.037 -4.317,-10.793 z" /></g><g
         transform="rotate(-5.0638314,484.16029,507.85173)"
         style="fill:#cdde87"
         id="Kyoto"><path
           inkscape:connector-curvature="0"
           style="fill:#cdde87;stroke:#040000"
           id="path101"
           d="m 414.449,661.545 3.598,10.072 10.073,2.158 2.878,2.158 1.439,16.55 4.317,10.072 5.037,5.037 -0.72,2.158 -9.354,1.439 -2.878,-2.16 -0.72,-4.316 -0.719,-6.475 -4.317,-0.721 v -2.877 l -4.317,-3.598 -12.231,-5.037 -5.756,-7.915 -5.756,-0.719 -3.598,-2.879 v -2.158 h 3.598 l 0.719,-2.158 v -5.756 l -5.756,-2.877 -1.439,-4.318 5.756,-0.719 4.317,-4.316 h 9.354 l -2.878,10.072 3.597,1.439 1.439,3.598 2.878,-0.721 z" /></g><g
         transform="rotate(-5.0638314,484.16029,507.85173)"
         style="fill:#cdde87"
         id="Osaka"><path
           inkscape:connector-curvature="0"
           style="fill:#cdde87;stroke:#040000"
           id="path104"
           d="m 423.083,697.519 4.317,0.721 0.719,10.791 3.598,2.16 -7.915,9.354 -0.719,9.352 -17.988,5.037 H 397.9 l 8.634,-4.316 6.475,-5.756 2.878,-7.914 -2.878,-6.478 1.439,-9.354 -4.317,-4.316 v -2.877 h 2.878 l 5.037,5.035 z" /></g><g
         transform="rotate(-5.0638314,484.16029,507.85173)"
         style="fill:#cdde87"
         id="Hyogo"><path
           inkscape:connector-curvature="0"
           style="fill:#cdde87;stroke:#040000"
           id="path107"
           d="m 388.547,656.508 1.439,5.756 5.756,2.158 v 5.756 l -1.439,2.158 h -2.878 v 2.158 l 3.598,2.879 5.756,0.719 5.756,7.915 12.231,5.037 4.317,3.598 v 2.877 l -5.037,1.439 -5.756,-5.035 h -2.159 v 2.877 l 4.317,4.316 -1.439,9.354 -6.475,1.439 -5.037,4.317 h -5.037 l -18.708,-10.073 -11.512,3.598 -6.475,0.719 0.719,-5.756 -2.878,-4.316 2.159,-11.512 5.756,-4.316 -0.72,-2.879 5.756,-4.317 0.72,-5.037 -2.878,-7.914 -4.317,-5.037 7.195,-2.158 z" /><path
           inkscape:connector-curvature="0"
           style="fill:#cdde87;stroke:#040000"
           id="path109"
           d="m 377.035,734.934 5.036,-4.316 v -3.598 l 10.074,-7.914 1.439,2.877 -3.598,3.598 0.72,12.232 -6.476,3.596 z" /></g><g
         transform="rotate(-5.0638314,484.16029,507.85173)"
         style="fill:#cdde87"
         id="Nara"><path
           inkscape:connector-curvature="0"
           style="fill:#cdde87;stroke:#040000"
           id="path112"
           d="m 423.083,729.896 0.719,-10.072 7.915,-8.634 8.634,-1.439 2.878,2.158 v 5.038 l 2.878,3.598 3.598,0.719 2.159,5.037 -2.159,1.438 -6.476,0.721 v 4.316 l 2.158,2.877 -0.719,3.598 v 9.354 l -6.476,3.598 v 5.037 l -3.597,2.877 h -14.391 l -0.719,-8.633 v -5.037 l 6.476,-6.476 -1.439,-5.037 v -4.316 z" /></g><g
         transform="rotate(-5.0638314,484.16029,507.85173)"
         style="fill:#cdde87"
         id="Wakayama"><path
           inkscape:connector-curvature="0"
           style="fill:#cdde87;stroke:#040000"
           id="path115"
           d="m 397.9,734.934 h 7.915 l 17.269,-5.037 1.438,0.721 v 4.316 l 0.72,5.037 -6.476,7.194 0.72,4.318 0.719,8.633 h 13.671 v 5.037 l 7.195,6.475 -2.158,5.757 -8.634,7.914 -3.598,0.721 -7.195,-4.316 -6.476,-2.879 -2.878,-7.915 -2.878,-5.037 -8.634,-5.756 -0.719,-5.756 2.158,-1.438 -0.719,-2.879 -2.159,-1.439 0.72,-3.598 v -10.073 z" /></g></g><g
       id="g4843"
       inkscape:label="Region-Chugoku"><g
         transform="rotate(-5.0638314,484.16029,507.85173)"
         style="fill:#cdde87"
         id="Tottori"><path
           inkscape:connector-curvature="0"
           style="fill:#cdde87;stroke:#040000"
           id="path118"
           d="m 363.364,659.385 5.037,5.037 2.878,7.914 -0.72,5.756 -5.756,3.599 h -3.597 l -5.037,0.721 -5.037,-5.757 -5.036,-1.439 -3.598,2.158 h -7.195 l -2.158,-2.879 h -3.598 l -16.549,15.831 -5.756,-3.598 0.72,-7.915 5.756,-3.598 v -10.074 l 5.756,0.721 7.195,-3.598 13.671,2.158 z" /></g><g
         transform="rotate(-5.0638314,484.16029,507.85173)"
         style="fill:#cdde87"
         id="Shimane"><path
           inkscape:connector-curvature="0"
           style="fill:#cdde87;stroke:#040000"
           id="path121"
           d="m 313.718,665.141 v 10.074 l -5.756,3.598 -0.72,7.915 -12.951,-1.439 -5.756,2.158 -1.439,2.158 v 2.158 l -3.597,5.037 -5.756,3.598 -7.195,0.719 -4.317,1.439 -2.878,-0.719 -5.036,3.598 -3.598,10.792 -1.439,5.756 -1.439,6.477 h -4.317 l -7.915,2.877 1.439,-6.475 v -4.316 l -2.159,-3.598 -3.598,-3.599 v -5.037 l 6.476,-0.719 21.585,-18.707 6.476,-3.598 5.037,-7.196 7.915,-3.598 3.598,-3.598 -2.159,-5.035 20.146,-7.195 7.915,1.439 z" /></g><g
         transform="rotate(-5.0638314,484.16029,507.85173)"
         style="fill:#cdde87"
         id="Okayama"><path
           inkscape:connector-curvature="0"
           style="fill:#cdde87;stroke:#040000"
           id="path124"
           d="m 312.279,690.325 16.549,-15.831 h 4.317 l 2.158,2.16 7.195,0.719 2.878,-2.158 5.037,1.439 5.037,5.757 5.756,-1.439 3.597,0.719 v 2.879 l -5.756,3.598 -1.439,12.23 2.878,5.037 -0.719,5.035 -5.037,2.879 -2.159,3.599 h -7.915 l -1.439,1.438 h 5.756 l -6.476,6.477 h -4.317 l -6.476,-3.598 -8.634,2.877 -0.72,-2.158 h -2.159 l -2.878,-4.316 z" /></g><g
         transform="rotate(-5.0638314,484.16029,507.85173)"
         style="fill:#cdde87"
         id="Hiroshima"><path
           inkscape:connector-curvature="0"
           style="fill:#cdde87;stroke:#040000"
           id="path127"
           d="m 251.84,728.459 2.159,-7.195 0.719,-5.756 2.878,-10.073 5.756,-3.598 2.878,0.719 4.317,-2.158 h 7.195 l 5.756,-3.598 3.597,-5.037 v -2.877 l 7.195,-3.598 12.951,1.439 5.756,3.598 4.317,28.06 2.878,3.598 -5.756,8.635 -2.878,-3.598 -3.598,2.877 v 3.598 l -6.476,0.721 3.598,-5.037 -2.159,-1.439 -4.317,2.879 h -7.195 l -7.915,5.756 -6.476,0.719 -1.439,-5.035 -2.878,-3.598 -5.037,0.719 -5.756,7.195 -6.476,-6.477 z" /><path
           inkscape:connector-curvature="0"
           style="fill:#cdde87;stroke:#040000"
           id="path129"
           d="m 297.169,738.531 h 3.598 v -2.158 l -0.72,-2.879 z" /><path
           inkscape:connector-curvature="0"
           style="fill:#cdde87;stroke:#040000"
           id="path131"
           d="m 273.425,742.849 4.317,2.158 -0.719,-2.878 v -3.598 h -2.159 z" /></g><g
         transform="rotate(-5.0638314,484.16029,507.85173)"
         style="fill:#cdde87"
         id="Yamaguchi"><path
           inkscape:connector-curvature="0"
           style="fill:#cdde87;stroke:#040000"
           id="path134"
           d="m 235.291,708.312 -0.719,5.037 4.317,3.599 2.159,4.316 v 3.598 l -2.159,5.756 8.634,-2.158 h 4.317 l 4.317,1.438 5.756,6.477 -1.439,2.877 v 3.599 l 0.72,5.037 -4.317,3.598 -0.72,7.195 -2.878,2.158 v -7.195 l -7.195,-2.158 -2.878,-2.879 -3.598,1.439 v -5.756 l -9.354,3.598 -1.439,-1.439 h -4.317 l -1.439,1.439 -1.439,-3.598 -4.317,5.756 -5.756,-0.719 -4.317,-7.196 -7.195,5.757 -3.598,-10.794 2.878,-1.439 -0.719,-3.596 -1.439,-3.598 7.195,-7.195 3.598,-0.719 3.598,2.877 1.439,-2.158 2.878,2.158 5.036,-0.719 4.317,-3.598 1.439,-2.879 6.476,-7.196 z" /><path
           inkscape:connector-curvature="0"
           style="fill:#cdde87;stroke:#040000"
           id="path136"
           d="m 260.474,752.202 -0.719,2.879 2.158,1.438 8.634,-1.438 1.439,-2.879 h -7.915 z" /></g></g><g
       id="g4854"
       inkscape:label="Region-Shikoku"><g
         transform="rotate(-5.0638314,484.16029,507.85173)"
         style="fill:#cdde87"
         id="Tokushima"><path
           inkscape:connector-curvature="0"
           style="fill:#cdde87;stroke:#040000"
           id="path139"
           d="m 328.108,746.446 h 7.195 l 2.878,-1.439 7.915,0.721 6.476,-3.599 h 4.317 l 2.878,-1.439 h 6.475 l 2.159,-1.439 5.037,-0.719 2.878,2.877 -0.719,2.16 -2.159,2.878 v 5.756 l 4.317,3.598 v 7.914 l -7.195,5.756 -7.195,2.879 -3.597,7.194 -7.195,-2.878 -2.878,-5.756 -2.878,-0.719 -0.719,-5.037 -2.878,-2.879 -5.756,1.439 -2.159,-2.158 h -3.597 l -3.598,-3.598 v -11.512 z" /></g><g
         transform="rotate(-5.0638314,484.16029,507.85173)"
         style="fill:#cdde87"
         id="Kagawa"><path
           inkscape:connector-curvature="0"
           style="fill:#cdde87;stroke:#040000"
           id="path142"
           d="m 328.108,746.446 h 7.195 l 2.878,-2.158 7.915,0.719 6.476,-2.878 h 4.317 l 2.158,-2.158 7.195,0.719 1.439,-1.439 -7.195,-3.598 -2.878,-3.596 h -2.878 l -1.439,-2.16 -3.598,-0.719 -9.354,2.158 -0.72,2.158 -4.317,2.879 h -7.914 v 3.598 l 1.439,2.158 z" /><path
           inkscape:connector-curvature="0"
           style="fill:#cdde87;stroke:#040000"
           id="path144"
           d="m 356.169,724.861 3.598,-0.721 0.719,-2.158 -0.719,-2.158 h -2.878 z" /></g><g
         transform="rotate(-5.0638314,484.16029,507.85173)"
         style="fill:#cdde87"
         id="Ehime"><path
           inkscape:connector-curvature="0"
           style="fill:#cdde87;stroke:#040000"
           id="path147"
           d="m 328.108,746.446 v 11.512 l -7.195,2.879 -11.512,0.719 -7.915,5.037 -2.878,5.035 -2.158,7.196 -2.159,2.158 -5.756,0.721 1.439,2.877 -0.719,2.158 -0.72,4.318 -7.915,8.633 -9.354,0.719 -3.598,-3.596 6.476,-2.16 v -2.877 l -2.159,-2.158 h -5.037 v -6.477 l -2.159,-2.158 -10.073,5.037 -4.317,1.439 5.756,-6.477 7.915,-2.158 3.597,-4.317 10.073,-4.316 5.037,-5.037 4.317,-13.67 6.476,-4.318 2.158,-2.877 2.878,2.158 3.598,7.195 h 7.195 l 8.634,-2.158 5.756,-0.721 z" /></g><g
         transform="rotate(-5.0638314,484.16029,507.85173)"
         style="fill:#cdde87"
         id="Kochi"><path
           inkscape:connector-curvature="0"
           style="fill:#cdde87;stroke:#040000"
           id="path150"
           d="m 271.267,800.408 10.073,-1.438 7.195,-7.914 1.439,-6.477 -1.439,-2.877 h 5.756 l 2.878,-3.599 1.439,-7.195 2.878,-3.598 7.915,-6.475 h 11.512 l 7.195,-2.879 3.598,3.598 h 4.317 l 1.439,2.158 5.756,-1.439 3.597,3.598 v 4.318 l 2.878,0.719 2.878,5.756 7.195,2.159 -4.317,7.195 -2.878,10.072 -9.354,-11.512 -5.037,-4.316 -3.598,-1.439 -8.634,0.719 -7.195,6.477 -8.634,2.877 -0.719,6.477 -7.915,9.354 v 2.878 l -5.036,-0.72 -0.72,5.757 -2.158,2.158 v 5.756 l 2.878,5.037 -4.317,-4.318 h -3.598 l -3.598,2.16 -6.476,-3.598 v -2.879 l 2.159,-1.439 -0.72,-4.316 h -9.354 l -0.719,-4.317 z" /></g></g><g
       id="g4889"
       inkscape:label="Region-Kyushu"
       style="display:inline"><g
         transform="rotate(-5.0638314,484.16029,507.85173)"
         style="fill:#cdde87"
         id="Fukuoka"><path
           inkscape:connector-curvature="0"
           style="fill:#cdde87;stroke:#040000"
           id="path153"
           d="m 159.023,772.349 0.719,-5.037 3.598,-2.877 3.597,0.719 2.878,2.158 2.878,-0.719 -1.438,-5.037 3.598,-1.439 1.439,-2.158 0.72,-5.035 7.195,-2.16 2.158,-2.158 10.793,2.158 3.598,-0.719 4.317,16.549 4.317,1.438 v 2.879 l -3.598,2.158 -8.635,0.719 -2.878,2.879 -3.598,5.757 v 5.756 l 1.439,5.037 -1.439,3.598 h -2.159 l -2.159,-2.879 h -4.317 l -7.195,4.316 -4.317,2.879 v -4.316 l -3.598,-4.318 3.598,-5.756 3.598,-1.439 1.439,-2.877 -2.879,-2.158 -0.719,-2.159 -3.598,-4.318 z" /></g><g
         transform="rotate(-5.0638314,484.16029,507.85173)"
         style="fill:#cdde87"
         id="Saga"><path
           inkscape:connector-curvature="0"
           style="fill:#cdde87;stroke:#040000"
           id="path156"
           d="m 159.023,772.349 9.353,1.438 5.037,7.196 2.159,0.721 -1.439,3.596 -3.598,0.721 -3.598,6.475 -2.878,-1.438 h -2.878 l -2.878,2.877 2.159,6.475 v 3.598 l -6.476,-2.158 -1.439,-2.158 -3.597,-1.439 -5.037,-10.072 -2.159,0.719 -1.439,-2.877 v -5.037 h 3.598 l 2.159,-2.158 -2.878,-4.317 2.158,-1.439 1.439,-2.158 3.598,-0.719 2.158,3.596 z" /></g><g
         transform="rotate(-5.0638314,484.16029,507.85173)"
         style="fill:#cdde87"
         id="Nagasaki"><path
           inkscape:connector-curvature="0"
           style="fill:#cdde87;stroke:#040000"
           id="path159"
           d="m 143.913,780.982 h -2.878 l -0.719,5.756 1.439,2.158 2.159,-0.719 5.037,10.072 3.597,1.439 0.72,1.439 7.915,2.877 -3.598,5.757 h 5.756 l 3.597,1.439 v 6.475 l -1.439,3.598 -7.195,1.439 h -2.159 v -2.877 l 1.439,-5.756 -3.598,-1.439 -5.036,1.439 -9.354,10.072 -1.439,-1.439 1.439,-10.072 -7.195,-8.636 1.439,-4.316 2.878,-3.598 4.317,5.037 v 6.476 l 6.476,0.72 0.719,-3.598 -2.158,-4.318 -4.317,-5.035 h -2.878 l -2.878,-6.477 -5.037,-1.438 1.439,-9.354 8.634,1.438 z" /><path
           inkscape:connector-curvature="0"
           style="fill:#cdde87;stroke:#040000"
           id="path161"
           d="m 129.523,776.665 2.158,1.439 -4.317,7.915 h -3.598 v -2.879 z" /><path
           inkscape:connector-curvature="0"
           style="fill:#cdde87;stroke:#040000"
           id="path163"
           d="m 102.901,799.689 5.037,-5.037 1.439,3.598 -2.159,3.598 -3.597,5.037 0.719,-4.316 z" /><path
           inkscape:connector-curvature="0"
           style="fill:#cdde87;stroke:#040000"
           id="path165"
           d="m 84.913,809.044 h 7.915 l 2.878,5.756 -5.037,0.719 -2.878,1.439 h -5.756 z" /><path
           inkscape:connector-curvature="0"
           style="fill:#cdde87;stroke:#040000"
           id="path167"
           d="m 139.596,750.763 v 7.195 l 3.598,-1.439 v -6.475 l -2.159,-0.719 z" /><path
           inkscape:connector-curvature="0"
           style="fill:#cdde87;stroke:#040000"
           id="path169"
           d="m 118.73,722.703 h 4.317 l 2.159,2.158 -3.598,7.195 -2.878,2.877 -2.878,-2.158 z" /><path
           inkscape:connector-curvature="0"
           style="fill:#cdde87;stroke:#040000"
           id="path171"
           d="m 121.608,718.385 h 4.317 v 2.879 l 1.439,-7.915 4.317,-2.879 1.439,-2.877 -0.72,-5.756 -2.159,-1.439 -5.037,2.158 v 5.756 z" /></g><g
         transform="rotate(-5.0638314,484.16029,507.85173)"
         style="fill:#cdde87"
         id="Kumamoto"><path
           inkscape:connector-curvature="0"
           style="fill:#cdde87;stroke:#040000"
           id="path174"
           d="m 170.535,801.129 5.037,-3.598 6.475,-3.598 4.317,0.719 1.439,1.439 3.598,0.721 1.439,2.877 5.036,-1.439 -0.719,-3.598 2.878,-1.438 4.317,0.719 2.878,5.037 2.159,1.438 v 5.037 l 0.72,9.354 -7.915,7.914 -2.879,2.158 -0.719,6.477 0.719,6.475 0.72,6.476 -1.439,6.477 -5.037,0.719 -2.158,2.158 h -10.073 l -3.598,-4.316 -16.549,1.439 14.391,-15.829 v -3.598 l 5.036,-7.195 -7.915,-2.158 4.318,-4.318 h 4.317 l -0.72,-2.877 -6.476,-5.756 -2.878,-2.88 z" /><path
           inkscape:connector-curvature="0"
           style="fill:#cdde87;stroke:#040000"
           id="path176"
           d="m 160.462,830.628 9.353,-2.158 v 2.879 l -2.158,2.158 v 2.877 l -6.476,-1.438 z" /><path
           inkscape:connector-curvature="0"
           style="fill:#cdde87;stroke:#040000"
           id="path178"
           d="m 150.389,827.03 4.317,-0.719 2.878,1.439 0.72,10.791 -7.915,6.478 h -2.878 v -2.879 l 2.878,-1.438 -2.159,-2.879 v -5.037 z" /></g><g
         transform="rotate(-5.0638314,484.16029,507.85173)"
         style="fill:#cdde87"
         id="Oita"><path
           inkscape:connector-curvature="0"
           style="fill:#cdde87;stroke:#040000"
           id="path181"
           d="m 191.401,796.092 0.719,-2.877 -1.439,-4.318 0.72,-6.475 2.878,-6.476 3.597,-2.16 8.635,-0.719 2.878,-2.877 v -2.16 l 4.317,2.879 h 8.634 l 5.037,-5.037 h 3.597 l 5.037,6.477 v 5.756 l -2.159,2.878 -5.756,3.598 h -3.598 l 0.72,3.598 16.549,3.598 -1.439,7.914 6.476,2.879 -4.317,4.316 5.036,3.599 -2.158,2.877 v 3.598 h -3.598 l -2.159,4.316 -2.159,-5.756 -6.476,0.721 -8.634,1.438 -1.439,-3.596 -10.792,-1.439 -0.72,-12.233 -2.159,-1.438 -2.878,-5.037 -4.317,-0.719 -2.878,1.438 0.719,3.598 -5.036,1.439 z" /></g><g
         transform="rotate(-5.0638314,484.16029,507.85173)"
         style="fill:#cdde87"
         id="Miyazaki"><path
           inkscape:connector-curvature="0"
           style="fill:#cdde87;stroke:#040000"
           id="path184"
           d="m 181.328,853.652 h 10.073 l 2.878,-2.158 4.317,-0.719 1.439,-6.477 v -7.194 l -0.72,-6.477 v -5.756 l 10.794,-9.354 v -2.877 l 10.792,2.158 1.439,2.877 15.11,-2.158 2.159,5.756 -8.634,8.635 1.439,4.316 -3.597,2.879 -7.195,15.829 v 7.195 l -5.756,10.072 2.878,3.599 -6.476,17.986 -3.598,4.318 -5.756,-3.598 h -2.159 v -4.318 l 0.719,-5.035 -6.476,-2.158 -2.158,-2.158 0.719,-4.318 -4.317,-2.878 -0.719,-3.598 z" /></g><g
         transform="rotate(-5.0638314,484.16029,507.85173)"
         style="fill:#cdde87"
         id="Kagoshima"><path
           inkscape:connector-curvature="0"
           style="fill:#cdde87;stroke:#040000"
           id="path187"
           d="m 161.181,850.775 16.549,-1.439 2.878,4.316 7.915,13.672 v 4.316 l 4.317,2.159 v 5.037 l 1.439,2.158 7.195,2.158 -1.439,5.756 v 3.598 h -2.878 l -2.878,3.598 4.317,7.193 -7.195,3.599 -0.72,3.598 -12.231,5.756 -1.439,-2.877 4.317,-5.757 2.158,-7.195 -0.719,-6.477 -4.317,-2.877 -2.159,-5.756 v -3.598 l 5.756,2.158 2.878,-2.877 v -3.598 l -5.036,-1.439 -2.878,0.719 -4.318,5.037 -3.597,8.635 2.159,5.035 3.598,7.914 v 2.879 l -2.878,2.159 -6.476,-5.757 -9.354,-1.439 -3.598,-5.756 v -2.877 l 5.756,-2.158 2.159,-2.879 0.719,-4.316 -0.719,-7.195 -5.037,-3.599 0.72,-17.986 1.439,-3.598 z" /><path
           inkscape:connector-curvature="0"
           style="fill:#cdde87;stroke:#040000"
           id="path189"
           d="m 184.206,953.665 5.036,-1.439 1.439,-7.914 2.159,-2.158 2.158,-8.636 0.72,-4.316 h -2.878 l -5.037,7.915 v 5.756 l -3.597,5.037 z" /><path
           inkscape:connector-curvature="0"
           style="fill:#cdde87;stroke:#040000"
           id="path191"
           d="m 159.023,952.226 6.475,-4.316 7.195,4.316 v 4.316 l -3.597,4.318 h -6.476 z" /><path
           inkscape:connector-curvature="0"
           style="fill:#cdde87;stroke:#040000"
           id="path193"
           d="m 90.669,1073.103 6.476,5.037 6.476,-1.439 v -3.598 l 13.67,-9.353 v -2.879 l -23.024,6.476 v 3.598 z" /><path
           inkscape:connector-curvature="0"
           style="fill:#cdde87;stroke:#040000"
           id="path195"
           d="m 89.95,1080.298 7.915,2.158 -7.196,-5.756 z" /><path
           inkscape:connector-curvature="0"
           style="fill:#cdde87;stroke:#040000"
           id="path197"
           d="m 129.523,1072.384 2.158,1.439 1.439,-3.598 z" /></g><g
         transform="rotate(-5.0638314,3490.0317,1133.9891)"
         style="fill:#cdde87"
         id="Okinawa"><path
           inkscape:connector-curvature="0"
           style="fill:#cdde87;stroke:#040000"
           id="path200"
           d="m 320.047,219.742 5.037,-3.598 -0.72,-3.598 1.439,-6.475 4.317,-0.72 -2.158,-2.878 0.719,-2.878 6.476,-3.597 2.159,-2.878 5.756,-1.439 -0.72,-3.597 4.317,-1.439 4.317,-4.317 0.72,-3.598 -0.72,-3.597 -2.878,-1.439 -7.195,7.914 -0.72,4.317 -12.231,-1.439 v 2.159 l 5.036,5.036 -11.512,7.195 -0.719,9.354 -3.598,2.878 v 5.756 z" /><path
           inkscape:connector-curvature="0"
           style="fill:#cdde87;stroke:#040000"
           id="path202"
           d="m 268.243,202.474 4.317,0.72 -0.72,4.317 z" /><path
           inkscape:connector-curvature="0"
           style="fill:#cdde87;stroke:#040000"
           id="path204"
           d="m 191.254,290.972 v 4.317 5.756 l 9.354,-2.878 -6.476,-2.159 -0.72,-2.878 z" /><path
           inkscape:connector-curvature="0"
           style="fill:#cdde87;stroke:#040000"
           id="path206"
           d="m 128.657,314.716 1.439,7.195 6.476,-1.439 -0.72,-5.036 4.317,-5.037 0.72,-4.317 h -2.878 l 0.719,2.878 -5.036,5.756 z" /><path
           inkscape:connector-curvature="0"
           style="fill:#cdde87;stroke:#040000"
           id="path208"
           d="m 105.633,321.911 h 4.317 l 0.719,-5.756 7.915,1.439 1.439,1.439 v 2.159 l -4.317,4.317 -10.073,-0.72 z" /></g></g></g><g
     inkscape:groupmode="layer"
     id="layer2"
     inkscape:label="Capitals"
     style="display:inline"><circle
       style="display:none;overflow:visible;opacity:1;fill:none;fill-opacity:1;stroke:#ff0000;stroke-width:4.41175604;stroke-miterlimit:4;stroke-dasharray:none;stroke-opacity:1"
       id="path4897"
       cx="812.36475"
       cy="274.34677"
       r="5.2941222"
       inkscape:label="Akita-Akita" /><circle
       inkscape:label="Hokkaido-Sapporo"
       r="5.2941222"
       cy="133.34677"
       cx="962.36475"
       id="circle4906"
       style="display:none;overflow:visible;opacity:1;fill:none;fill-opacity:1;stroke:#ff0000;stroke-width:4.41175604;stroke-miterlimit:4;stroke-dasharray:none;stroke-opacity:1" /><circle
       inkscape:label="Fukuoka-Fukuoka"
       r="5.2941222"
       cy="323.34677"
       cx="244.36475"
       id="circle4908"
       style="display:none;overflow:visible;opacity:1;fill:none;fill-opacity:1;stroke:#ff0000;stroke-width:4.41175604;stroke-miterlimit:4;stroke-dasharray:none;stroke-opacity:1" /><circle
       style="display:none;overflow:visible;opacity:1;fill:none;fill-opacity:1;stroke:#ff0000;stroke-width:4.41175604;stroke-miterlimit:4;stroke-dasharray:none;stroke-opacity:1"
       id="circle4910"
       cx="221.36475"
       cy="325.34677"
       r="5.2941222"
       inkscape:label="Saga-Saga" /><circle
       inkscape:label="Nagasaki-Nagasaki"
       r="5.2941222"
       cy="350.34677"
       cx="205.36475"
       id="circle4912"
       style="display:none;overflow:visible;opacity:1;fill:none;fill-opacity:1;stroke:#ff0000;stroke-width:4.41175604;stroke-miterlimit:4;stroke-dasharray:none;stroke-opacity:1" /><circle
       style="display:none;overflow:visible;opacity:1;fill:none;fill-opacity:1;stroke:#ff0000;stroke-width:4.41175604;stroke-miterlimit:4;stroke-dasharray:none;stroke-opacity:1"
       id="circle4914"
       cx="225.36475"
       cy="364.34677"
       r="5.2941222"
       inkscape:label="Kumamoto-Kumamoto" /><circle
       inkscape:label="Oita-Oita"
       r="5.2941222"
       cy="372.34677"
       cx="270.36475"
       id="circle4916"
       style="display:none;overflow:visible;opacity:1;fill:none;fill-opacity:1;stroke:#ff0000;stroke-width:4.41175604;stroke-miterlimit:4;stroke-dasharray:none;stroke-opacity:1"
       inkscape:transform-center-x="-176"
       inkscape:transform-center-y="-97.000003" /><circle
       style="display:none;overflow:visible;opacity:1;fill:none;fill-opacity:1;stroke:#ff0000;stroke-width:4.41175604;stroke-miterlimit:4;stroke-dasharray:none;stroke-opacity:1"
       id="circle4918"
       cx="224.36475"
       cy="418.34677"
       r="5.2941222"
       inkscape:label="Miyazaki-Miyazaki" /><circle
       inkscape:label="Kagoshima-Kagoshima"
       r="5.2941222"
       cy="412.34677"
       cx="175.36475"
       id="circle4920"
       style="display:none;overflow:visible;opacity:1;fill:none;fill-opacity:1;stroke:#ff0000;stroke-width:4.41175604;stroke-miterlimit:4;stroke-dasharray:none;stroke-opacity:1" /><circle
       style="display:none;overflow:visible;opacity:1;fill:none;fill-opacity:1;stroke:#ff0000;stroke-width:4.41175604;stroke-miterlimit:4;stroke-dasharray:none;stroke-opacity:1"
       id="circle4922"
       cx="462.36475"
       cy="119.34677"
       r="5.2941222"
       inkscape:label="Okinawa-Naha" /><circle
       inkscape:label="Tokushima-Tokushima"
       r="5.2941222"
       cy="411.34677"
       cx="410.36475"
       id="circle4924"
       style="display:none;overflow:visible;opacity:1;fill:none;fill-opacity:1;stroke:#ff0000;stroke-width:4.41175604;stroke-miterlimit:4;stroke-dasharray:none;stroke-opacity:1" /><circle
       style="display:none;overflow:visible;opacity:1;fill:none;fill-opacity:1;stroke:#ff0000;stroke-width:4.41175604;stroke-miterlimit:4;stroke-dasharray:none;stroke-opacity:1"
       id="circle4926"
       cx="405.36475"
       cy="386.34677"
       r="5.2941222"
       inkscape:label="Kagawa-Takamatsu" /><circle
       inkscape:label="Ehime-Matsuyama"
       r="5.2941222"
       cy="373.34677"
       cx="344.36475"
       id="circle4928"
       style="display:none;overflow:visible;opacity:1;fill:none;fill-opacity:1;stroke:#ff0000;stroke-width:4.41175604;stroke-miterlimit:4;stroke-dasharray:none;stroke-opacity:1" /><circle
       style="display:none;overflow:visible;opacity:1;fill:none;fill-opacity:1;stroke:#ff0000;stroke-width:4.41175604;stroke-miterlimit:4;stroke-dasharray:none;stroke-opacity:1"
       id="circle4930"
       cx="342.36475"
       cy="407.34677"
       r="5.2941222"
       inkscape:label="Kochi-Kochi" /><circle
       inkscape:label="Tottori-Tottori"
       r="5.2941222"
       cy="334.34677"
       cx="448.36475"
       id="circle4932"
       style="display:none;overflow:visible;opacity:1;fill:none;fill-opacity:1;stroke:#ff0000;stroke-width:4.41175604;stroke-miterlimit:4;stroke-dasharray:none;stroke-opacity:1" /><circle
       style="display:none;overflow:visible;opacity:1;fill:none;fill-opacity:1;stroke:#ff0000;stroke-width:4.41175604;stroke-miterlimit:4;stroke-dasharray:none;stroke-opacity:1"
       id="circle4934"
       cx="404.36475"
       cy="306.34677"
       r="5.2941222"
       inkscape:label="Shimane-Matsue" /><circle
       inkscape:label="Okayama-Okayama"
       r="5.2941222"
       cy="361.34677"
       cx="412.36475"
       id="circle4936"
       style="display:none;overflow:visible;opacity:1;fill:none;fill-opacity:1;stroke:#ff0000;stroke-width:4.41175604;stroke-miterlimit:4;stroke-dasharray:none;stroke-opacity:1" /><circle
       style="display:none;overflow:visible;opacity:1;fill:none;fill-opacity:1;stroke:#ff0000;stroke-width:4.41175604;stroke-miterlimit:4;stroke-dasharray:none;stroke-opacity:1"
       id="circle4938"
       cx="345.36475"
       cy="332.34677"
       r="5.2941222"
       inkscape:label="Hiroshima-Hiroshima" /><circle
       inkscape:label="Yamaguchi-Yamaguchi"
       r="5.2941222"
       cy="318.34677"
       cx="299.36475"
       id="circle4940"
       style="display:none;overflow:visible;opacity:1;fill:none;fill-opacity:1;stroke:#ff0000;stroke-width:4.41175604;stroke-miterlimit:4;stroke-dasharray:none;stroke-opacity:1" /><circle
       inkscape:label="Mie-Tsu"
       r="5.2941222"
       cy="425.34677"
       cx="511.36475"
       id="circle4942"
       style="display:none;overflow:visible;opacity:1;fill:none;fill-opacity:1;stroke:#ff0000;stroke-width:4.41175604;stroke-miterlimit:4;stroke-dasharray:none;stroke-opacity:1" /><circle
       style="display:none;overflow:visible;opacity:1;fill:none;fill-opacity:1;stroke:#ff0000;stroke-width:4.41175604;stroke-miterlimit:4;stroke-dasharray:none;stroke-opacity:1"
       id="circle4944"
       cx="504.36475"
       cy="402.34677"
       r="5.2941222"
       inkscape:label="Shiga-Otsu" /><circle
       inkscape:label="Kyoto-Kyoto"
       r="5.2941222"
       cy="397.34677"
       cx="493.36475"
       id="circle4946"
       style="display:none;overflow:visible;opacity:1;fill:none;fill-opacity:1;stroke:#ff0000;stroke-width:4.41175604;stroke-miterlimit:4;stroke-dasharray:none;stroke-opacity:1" /><circle
       style="display:none;overflow:visible;opacity:1;fill:none;fill-opacity:1;stroke:#ff0000;stroke-width:4.41175604;stroke-miterlimit:4;stroke-dasharray:none;stroke-opacity:1"
       id="circle4948"
       cx="477.36475"
       cy="404.34677"
       r="5.2941222"
       inkscape:label="Osaka-Osaka" /><circle
       inkscape:label="Hyogo-Kobe"
       r="5.2941222"
       cy="391.34677"
       cx="463.36475"
       id="circle4950"
       style="display:none;overflow:visible;opacity:1;fill:none;fill-opacity:1;stroke:#ff0000;stroke-width:4.41175604;stroke-miterlimit:4;stroke-dasharray:none;stroke-opacity:1" /><circle
       style="display:none;overflow:visible;opacity:1;fill:none;fill-opacity:1;stroke:#ff0000;stroke-width:4.41175604;stroke-miterlimit:4;stroke-dasharray:none;stroke-opacity:1"
       id="circle4952"
       cx="485.36475"
       cy="419.34677"
       r="5.2941222"
       inkscape:label="Nara-Nara" /><circle
       inkscape:label="Wakayama-Wakayama"
       r="5.2941222"
       cy="423.34677"
       cx="449.36475"
       id="circle4954"
       style="display:none;overflow:visible;opacity:1;fill:none;fill-opacity:1;stroke:#ff0000;stroke-width:4.41175604;stroke-miterlimit:4;stroke-dasharray:none;stroke-opacity:1" /><circle
       inkscape:label="Aichi-Nagoya"
       r="5.2941222"
       cy="420.34677"
       cx="547.36475"
       id="circle4956"
       style="display:none;overflow:visible;opacity:1;fill:none;fill-opacity:1;stroke:#ff0000;stroke-width:4.41175604;stroke-miterlimit:4;stroke-dasharray:none;stroke-opacity:1" /><circle
       style="display:none;overflow:visible;opacity:1;fill:none;fill-opacity:1;stroke:#ff0000;stroke-width:4.41175604;stroke-miterlimit:4;stroke-dasharray:none;stroke-opacity:1"
       id="circle4958"
       cx="710.36475"
       cy="337.34677"
       r="5.2941222"
       inkscape:label="Niigata-Niigata" /><circle
       inkscape:label="Toyama-Toyama"
       r="5.2941222"
       cy="354.34677"
       cx="603.36475"
       id="circle4960"
       style="display:none;overflow:visible;opacity:1;fill:none;fill-opacity:1;stroke:#ff0000;stroke-width:4.41175604;stroke-miterlimit:4;stroke-dasharray:none;stroke-opacity:1" /><circle
       style="display:none;overflow:visible;opacity:1;fill:none;fill-opacity:1;stroke:#ff0000;stroke-width:4.41175604;stroke-miterlimit:4;stroke-dasharray:none;stroke-opacity:1"
       id="circle4962"
       cx="581.36475"
       cy="343.34677"
       r="5.2941222"
       inkscape:label="Ishikawa-Kanazawa" /><circle
       inkscape:label="Fukui-Fukui"
       r="5.2941222"
       cy="358.34677"
       cx="547.36475"
       id="circle4964"
       style="display:none;overflow:visible;opacity:1;fill:none;fill-opacity:1;stroke:#ff0000;stroke-width:4.41175604;stroke-miterlimit:4;stroke-dasharray:none;stroke-opacity:1" /><circle
       style="display:none;overflow:visible;opacity:1;fill:none;fill-opacity:1;stroke:#ff0000;stroke-width:4.41175604;stroke-miterlimit:4;stroke-dasharray:none;stroke-opacity:1"
       id="circle4966"
       cx="627.36475"
       cy="433.34677"
       r="5.2941222"
       inkscape:label="Yamanashi-Kofu" /><circle
       inkscape:label="Nagano-Nagano"
       r="5.2941222"
       cy="375.34677"
       cx="638.36475"
       id="circle4968"
       style="display:none;overflow:visible;opacity:1;fill:none;fill-opacity:1;stroke:#ff0000;stroke-width:4.41175604;stroke-miterlimit:4;stroke-dasharray:none;stroke-opacity:1" /><circle
       style="display:none;overflow:visible;opacity:1;fill:none;fill-opacity:1;stroke:#ff0000;stroke-width:4.41175604;stroke-miterlimit:4;stroke-dasharray:none;stroke-opacity:1"
       id="circle4970"
       cx="546.36475"
       cy="398.34677"
       r="5.2941222"
       inkscape:label="Gifu-Gifu" /><circle
       inkscape:label="Shizuoka-Shizuoka"
       r="5.2941222"
       cy="464.34677"
       cx="594.36475"
       id="circle4972"
       style="display:none;overflow:visible;opacity:1;fill:none;fill-opacity:1;stroke:#ff0000;stroke-width:4.41175604;stroke-miterlimit:4;stroke-dasharray:none;stroke-opacity:1" /><circle
       inkscape:label="Gunma-Maebashi"
       r="5.2941222"
       cy="407.34677"
       cx="668.36475"
       id="circle4974"
       style="display:none;overflow:visible;opacity:1;fill:none;fill-opacity:1;stroke:#ff0000;stroke-width:4.41175604;stroke-miterlimit:4;stroke-dasharray:none;stroke-opacity:1" /><circle
       style="display:none;overflow:visible;opacity:1;fill:none;fill-opacity:1;stroke:#ff0000;stroke-width:4.41175604;stroke-miterlimit:4;stroke-dasharray:none;stroke-opacity:1"
       id="circle4976"
       cx="705.36469"
       cy="412.34677"
       r="5.2941222"
       inkscape:label="Tochigi-Utsunomiya" /><circle
       inkscape:label="Ibaraki-Mito"
       r="5.2941222"
       cy="443.34677"
       cx="721.36475"
       id="circle4978"
       style="display:none;overflow:visible;opacity:1;fill:none;fill-opacity:1;stroke:#ff0000;stroke-width:4.41175604;stroke-miterlimit:4;stroke-dasharray:none;stroke-opacity:1" /><circle
       style="display:none;overflow:visible;opacity:1;fill:none;fill-opacity:1;stroke:#ff0000;stroke-width:4.41175604;stroke-miterlimit:4;stroke-dasharray:none;stroke-opacity:1"
       id="circle4980"
       cx="679.36475"
       cy="437.34677"
       r="5.2941222"
       inkscape:label="Saitama-Saitama" /><circle
       inkscape:label="Kanagawa-Yokohama"
       r="5.2941222"
       cy="468.34677"
       cx="674.36469"
       id="circle4982"
       style="display:none;overflow:visible;opacity:1;fill:none;fill-opacity:1;stroke:#ff0000;stroke-width:4.41175604;stroke-miterlimit:4;stroke-dasharray:none;stroke-opacity:1" /><circle
       style="display:none;overflow:visible;opacity:1;fill:none;fill-opacity:1;stroke:#ff0000;stroke-width:4.41175604;stroke-miterlimit:4;stroke-dasharray:none;stroke-opacity:1"
       id="circle4984"
       cx="679.36475"
       cy="451.34677"
       r="5.2941222"
       inkscape:label="Tokyo-Shinjuku" /><circle
       inkscape:label="Chiba-Chiba"
       r="5.2941222"
       cy="463.34677"
       cx="708.36475"
       id="circle4986"
       style="display:none;overflow:visible;opacity:1;fill:none;fill-opacity:1;stroke:#ff0000;stroke-width:4.41175604;stroke-miterlimit:4;stroke-dasharray:none;stroke-opacity:1" /><circle
       style="display:none;overflow:visible;opacity:1;fill:none;fill-opacity:1;stroke:#ff0000;stroke-width:4.41175604;stroke-miterlimit:4;stroke-dasharray:none;stroke-opacity:1"
       id="circle4990"
       cx="773.36475"
       cy="339.34677"
       r="5.2941222"
       inkscape:label="Yamagata-Yamagata" /><circle
       inkscape:label="Miyagi-Sendai"
       r="5.2941222"
       cy="360.34677"
       cx="796.36475"
       id="circle4992"
       style="display:none;overflow:visible;opacity:1;fill:none;fill-opacity:1;stroke:#ff0000;stroke-width:4.41175604;stroke-miterlimit:4;stroke-dasharray:none;stroke-opacity:1" /><circle
       style="display:none;overflow:visible;opacity:1;fill:none;fill-opacity:1;stroke:#ff0000;stroke-width:4.41175604;stroke-miterlimit:4;stroke-dasharray:none;stroke-opacity:1"
       id="circle4994"
       cx="849.36475"
       cy="299.34677"
       r="5.2941222"
       inkscape:label="Iwate-Morioka" /><circle
       inkscape:label="Fukushima-Fukushima"
       r="5.2941222"
       cy="380.34677"
       cx="761.36475"
       id="circle4996"
       style="display:none;overflow:visible;opacity:1;fill:none;fill-opacity:1;stroke:#ff0000;stroke-width:4.41175604;stroke-miterlimit:4;stroke-dasharray:none;stroke-opacity:1" /><circle
       style="display:none;overflow:visible;opacity:1;fill:none;fill-opacity:1;stroke:#ff0000;stroke-width:4.41175604;stroke-miterlimit:4;stroke-dasharray:none;stroke-opacity:1"
       id="circle4998"
       cx="866.36475"
       cy="235.34677"
       r="5.2941222"
       inkscape:label="Aomori-Aomori" /></g></svg>