<?xml version="1.0" encoding="utf-8" standalone="no"?>

<svg xmlns="http://www.w3.org/2000/svg"
xmlns:xlink="http://www.w3.org/1999/xlink" xml:space="preserve"
viewBox="-325 105 1332 458" id="MapOfJapan"
version="1.1">

<defs id="MapOfJapanDefs">
    <g id="CapitalMarker">
        <circle id="CapitalCircle" cx="0" cy="0" r="3" />
    </g>
</defs>

<g id="Rotator" transform="rotate(40, 666, 229)">
    <path id="Separator" style="fill:none"
        d="m 126.4,605.9 c 0,0 153.5,-2.3 270.5,-113.4 117,-111.1 124.2,-261.4 124.2,-261.4" />

    <g id="Geography">
        <g id="Hopporyodo" transform="rotate(-5,484,508)">
            <path d="m 898,124.8 h 5.7 l 2.9,-5.8 8.6,-5 1.5,-6.5 9.3,-10.05 2.2,-7.92 7.9,0.72 6.5,-5.75 11.5,-12.23 11.5,-7.92 h 5 l 3.6,-2.16 -0.7,-10.07 -2.9,0.72 -9.3,7.19 -7.9,7.92 -10.8,2.16 -5.8,-6.48 v 8.64 l -7.9,7.91 -0.7,1.44 -5.8,2.16 -3.6,8.63 -4.3,2.88 -1.4,5.71 -5.8,2.2 2.2,7.2 -6.5,2.9 v 2.1 l -2.9,0.8 0.7,2.8 -2.1,1.5 0.7,5.7 z" />
            <path d="m 843.3,169.4 4.3,3.6 h 2.1 v -7.9 l 2.2,-3.6 5,-2.9 3.6,-6.5 1.5,-4.3 5.7,-4.3 1.5,-5 6.5,-2.2 5,-3.6 5,-2.9 1.5,-4.3 -6.5,2.2 -11.5,-3.6 -7.9,13.6 v 2.9 l -3.6,2.2 -1.5,7.2 -4.3,3.6 -0.7,2.1 -7.9,9.4 z" />
            <path d="m 892.9,166.5 2.9,2.2 9.4,-6.5 -3.6,-3.6 -5.1,1.4 -3.6,3.6 z" />
            <path d="m 873.5,183.8 h 2.9 v -3.6 h -2.9 z" />
        </g>

    <g id="Region-Hokkaido">
        <g id="Hokkaido" class="kitsun-click">
            <path d="m 626,319.8 2.9,-0.7 v -2.2 l 4.3,-3.6 4.3,-1.4 -0.7,-6.5 7.2,-5.8 2.8,-4.3 3.6,2.2 12.3,4.3 6.5,-5.8 -3.6,-5 -7.2,-2.2 -8.7,-10 -3.6,-0.8 -4.3,2.2 -6.5,-7.2 -2.8,-0.7 -2.9,-4.3 v -2.2 l 2.1,-2.1 2.9,-8.7 2.9,-2.9 5,-0.7 4.3,0.7 3.6,2.9 5.1,5.8 2.9,5 h 3.6 l 2.8,-4.3 13,-8.6 17.3,-5.1 42.4,24.5 20.9,11.5 2.9,-8.6 v -12.3 l 2.8,-8.6 3.6,-2.9 4.3,-7.9 20.2,-20.1 5,-3.6 7.9,0.7 2.2,1.4 10.8,-0.7 0.7,-5.8 2.2,-0.7 2.1,2.2 5.8,1.4 5.7,-6.5 1.5,-4.3 12.9,-3.6 2.9,-3.6 7.9,-6.4 V 191 l -3.6,-1.5 -5.7,7.2 -10.1,2.9 -1.4,-4.3 2.8,-0.7 -5,-12.3 3.6,1.5 v -3.6 l -6.5,-0.7 -3.6,-5.1 -0.7,-7.2 2.9,-14.4 5,-3.5 v -10.8 l -2.9,-0.8 -8.6,11.6 -5,5.7 -7.2,8.6 -9.4,0.8 -6.5,-2.2 -6.4,-8.6 -2.2,4.3 -3.6,-5.1 -11.5,2.9 -4.3,-2.9 v -3.5 l -9.4,-3.6 -17.2,-13 L 731,121.2 721.7,109 710.2,93.85 700.1,85.93 691.5,77.3 h -2.2 v 3.6 l -8.6,0.72 -2.2,3.59 0.7,7.2 -2.1,2.16 0.7,6.43 7.9,12.3 2.9,9.3 v 11.5 l -1.5,9.4 -4.3,5.8 2.9,8.6 -0.7,5.7 -1.5,4.4 -1.4,5.7 -7.9,5.8 -1.5,3.6 0.8,7.2 4.3,13.6 -2.2,6.5 -8.6,7.2 -5.8,-0.7 -3.6,-3.6 -5.7,1.4 -7.2,-2.9 -3.6,-4.3 -7.2,-0.7 -3.6,2.2 0.7,5 6.5,10.8 v 4.3 l -5,4.3 -1.5,2.2 -2.1,6.5 -4.4,-2.9 -4.3,5 -8.6,3.6 -1.4,4.3 0.7,10.1 -4.3,5.8 5,7.9 6.5,4.3 5,8.6 v 6.5 l -5,13.7 2.1,9.3 z" />
            <path d="m 662,100.3 h 5 l -0.7,-4.29 -2.9,-2.88 -4.3,2.16 v 2.16 z" />
            <path d="m 653.3,89.53 2.2,-2.87 v -4.32 l -3.6,0.72 z" />
            <path d="m 597.9,273.7 -1.4,7.2 -2.2,3.6 -2.9,-3.6 1.5,-4.3 z" />
        </g>
    </g>

    <g id="Region-Tohoku">
        <g id="Fukushima" class="kitsun-click">
            <path d="m 613,527.7 20.2,3.6 2.9,-1.4 -1.5,-7.9 2.9,-2.9 8.6,1.4 1.5,2.2 7.9,0.7 2.9,5.8 6.4,-5.1 h 2.9 l 4.3,10.8 V 545 l 0.8,11.5 1.4,5 -1.4,2.9 -1.5,2.9 v 7.9 l -7.2,8.6 -7.9,-2.1 -2.2,-2.2 -7.1,6.5 -5.1,-4.3 h -2.9 l -2.8,-7.9 -6.5,-5.1 -3.6,-0.7 h -7.2 l -12.2,7.2 -2.9,2.2 -7.2,3.6 h -2.9 l -2.2,-1.5 1.5,-2.1 v -5.8 l -3.6,-6.5 -1.4,-2.8 0.7,-2.2 0.7,-2.9 -1.4,-2.1 0.7,-3.6 12.2,-5.1 4.3,-2.1 -1.4,-2.2 v -2.9 l 3.6,-1.4 2.1,-5.8 z" />
        </g>
        <g id="Akita" class="kitsun-click">
            <path d="m 617.4,376.6 10,-1.4 h 3.6 l 3.6,-1.5 13,2.9 5,-3.6 9.4,2.2 v 8.6 l -4.4,2.9 v 5.7 l -1.4,2.2 1.4,5.8 0.8,8.6 -2.2,5 v 7.2 l -2.9,8.7 -4.3,2.8 1.4,6.5 5.8,6.5 0.7,2.9 -2.1,2.1 1.4,4.3 0.7,5.1 -3.6,0.7 -0.7,2.2 -5,2.8 -6.5,-5.7 -10.1,-2.9 -9.3,-5 h -4.3 l 6.4,-14.4 0.7,-17.3 -2.8,-5 v -5.8 h -10.8 l -2.2,-2.1 -0.7,-5.1 h 2.9 l 2.9,2.2 3.6,-2.9 v -2.9 l 3.6,-5 v -6.5 l 1.4,-3.6 z" />
        </g>
        <g id="Aomori" class="kitsun-click">
            <path d="m 617.4,376.6 v -4.3 l -2.9,-1.4 1.4,-5.8 4.3,-4.3 10.1,-2.9 2.2,-11.5 2.1,-2.2 v -2.8 l -2.1,-1.5 1.4,-9.3 6.5,2.1 4.3,-0.7 4.3,18.7 4.3,2.9 5.8,-3.6 v -6.5 l 6.5,3.6 3.6,3.6 3.6,-2.1 -0.8,-6.5 3.6,-4.3 -0.7,-6.5 -4.3,-3.6 -5,4.3 -6.5,0.7 -5.8,2.9 v -7.9 l 1.5,-7.2 4.3,-6.5 h 5.7 l 8.7,7.9 8.6,-1.4 -2.2,15.1 2.2,4.3 v 15.9 l 4.3,12.2 6.5,2.9 0.7,2.1 -3.6,1.5 -0.7,2.1 -11.5,2.9 -13,7.2 -2.8,-2.2 v -9.3 l -8.7,-1.5 -5.7,3.6 -13,-3.6 -4.3,2.2 -8.6,-0.7 z" />
        </g>
        <g id="Yamagata" class="kitsun-click">
            <path d="m 616.6,451.4 5.1,0.8 9.3,5 10.1,2.9 5.8,5 0.7,2.9 3.6,5.8 -1.5,6.4 -2.1,-0.7 -1.5,2.9 v 2.1 l 2.2,1.5 0.7,7.9 -5,8.6 0.7,5.1 -2.9,1.4 -1.4,3.6 -4.3,2.2 v 2.8 l 1.4,2.2 -2.9,2.2 1.5,7.9 -2.9,1.4 -20.9,-3.6 -5,-3.6 3.6,-10.8 -2.2,-1.4 2.9,-5.1 h 2.9 l 3.6,-3.5 v -2.9 l -5.1,-4.3 h -2.8 l -0.8,-6.5 -5,-4.3 7.2,-9.4 5.8,-18.7 z" />
        </g>
        <g id="Miyagi" class="kitsun-click">
            <path d="m 637.5,519.1 8.6,1.4 1.5,2.2 7.9,0.7 2.9,5.8 6.4,-5.1 h 2.9 l -0.7,-10.8 5,-8.6 v -7.2 l 7.9,-2.2 1.5,-2.8 h 4.3 l 6.5,7.2 1.4,-1.5 v -6.5 h -2.9 l 2.2,-5.7 -2.2,-1.5 0.8,-3.6 -0.8,-6.4 2.9,-1.5 0.7,-4.3 0.8,-4.3 2.8,1.4 -1.4,-7.2 -5,-2.1 -6.5,12.9 -2.2,-1.4 -7.2,2.9 -2.1,-3.6 -16.6,-7.2 -2.9,0.7 -0.7,2.2 -5.7,2.8 v 2.2 l 3.6,6.5 -0.8,5.7 -2.8,-0.7 -1.5,2.9 v 2.1 l 2.2,1.5 v 4.3 l 0.7,3.6 -2.9,4.3 -1.4,5.1 v 4.3 l -2.9,1.4 -0.7,3.6 -4.3,2.2 z" />
        </g>
        <g id="Iwate" class="kitsun-click">
            <path d="m 657.6,460.1 16.6,7.2 2.2,3.6 6.4,-2.2 2.2,0.7 5.7,-11.5 2.9,-0.7 2.9,1.4 5,1.5 v -3.6 l 3.6,-0.7 0.8,-3.6 1.4,-2.2 -0.7,-3.6 3.6,-2.1 -2.2,-1.5 2.2,-2.9 -1.5,-2.1 v -3.6 l 4.3,-2.9 -2.1,-1.4 2.1,-6.5 v -2.9 l -2.1,-1.4 v -6.5 l -1.5,-4.3 -0.7,-4.3 v -2.9 l -1.4,-2.9 -0.7,-2.2 -3.6,-1.4 0.7,-4.3 -2.2,-2.2 v -5.7 l -7.9,-10.1 -2.9,2.2 -2.1,2.1 -12.2,2.9 -12.3,6.5 -2.1,-2.2 -4.4,2.9 v 5.7 l -1.4,2.2 1.4,6.5 0.8,7.2 -2.2,6.4 v 6.5 l -2.9,8.7 -4.3,2.8 1.5,6.5 5.7,6.5 v 2.9 l -1.4,2.1 1.4,3.6 z" />
        </g>
    </g>

    <g id="Region-Kanto">
        <g id="Gunma" class="kitsun-click">
            <path d="m 592.9,580.2 -2.2,-1.4 -5.7,-1.4 h -3.6 l -2.9,6.4 -3.6,4.4 H 572 l -1.4,1.4 -2.2,5.7 -3.6,0.8 -3.6,-0.8 -7.2,6.5 v 8.7 h 4.4 l 5,2.1 -1.5,6.5 0.8,7.9 0.7,5 1.4,3.6 3.6,1.5 5.1,-5.8 6.4,-2.1 2.9,-2.2 0.7,-4.3 4.4,-2.2 h 5 l 5.7,2.9 8,0.7 h 3.6 v -2.8 l -2.2,-2.9 -6.5,-0.7 -2.9,-7.2 v -5.1 l 1.5,-6.5 h -4.3 l 0.7,-4.3 -1.5,-8.6 z" />
        </g>
        <g id="Tochigi" class="kitsun-click">
            <path d="m 592.9,580.2 h 3.6 l 7.9,-2.8 2.9,-2.9 11.5,-7.2 7.2,0.7 3.6,0.7 6.5,5.1 2.8,7.2 -1.4,3.6 0.7,8.6 -0.7,11.5 -4.3,5.8 -2.2,0.7 -13.6,7.2 H 608 l -6.5,-0.7 -2.9,-6.5 v -5.1 l 2.2,-7.2 h -5 l 0.7,-2.8 v -2.2 L 595,586 Z" />
        </g>
        <g id="Ibaraki" class="kitsun-click">
            <path d="m 623.1,637.1 2.9,2.9 8.6,0.7 1.5,2.9 h 7.9 l 4.3,-3.6 h 6.5 l 2.8,1.4 5.8,5.8 h 3.6 l -10.8,-18.8 -0.7,-2.8 -2.2,-2.2 0.7,-7.9 2.9,-2.9 v -2.1 l -1.4,-2.9 2.1,-4.3 4.4,-13 2.1,-6.5 -8.6,-2.1 -1.5,-2.2 -7.2,6.5 -5,-4.3 h -2.9 l -1.4,2.9 v 8.6 l -0.7,2.1 1.4,9.4 -4.3,6.5 h -2.2 l -13.6,7.2 h -2.9 l -7.2,0.7 2.2,2.2 2.1,1.4 0.7,6.5 7.2,3.6 z" />
        </g>
        <g id="Saitama" class="kitsun-click">
            <path d="m 567.7,636.4 5,-5.1 6.5,-2.1 3.6,-2.9 V 622 l 4.3,-2.2 5.8,0.7 5.7,2.9 10.8,0.7 0.8,-2.8 2.1,1.4 0.7,6.5 6.5,3.6 2.9,4.3 0.7,10.1 h -7.9 l -5,1.4 h -6.5 l -7.9,-0.7 -13,-4.3 -2.9,1.4 -7.9,-0.7 -2.9,-2.9 z" />
        </g>
        <g id="Kanagawa" class="kitsun-click">
            <path d="m 588.6,656.5 11.5,2.2 h 10.1 l 5,-2.2 h 8.6 l -3.6,1.4 -2.1,2.2 v 3.6 l -4.3,3.6 -0.8,7.9 4.4,2.2 -0.8,4.3 -4.3,2.9 v -5.1 l -2.1,-3.6 -10.1,-1.4 -4.3,2.9 -3.6,1.4 v 3.6 l -2.9,3.6 -7.9,-3.6 0.7,-2.9 v -6.4 l -2.9,-2.2 V 668 l 5.1,-2.9 3.6,-2.1 0.7,-2.2 z" />
            </g>
        <g id="Tokyo" class="kitsun-click">
            <path d="m 579.9,644.3 2.9,-1.5 13,4.4 7.2,1.4 h 7.2 l 4.3,-1.4 h 7.9 l 1.4,9.3 -7.9,0.7 -5.7,1.5 h -10.8 l -10.1,-1.5 -0.7,-2.1 -2.2,-2.2 -5.7,-5 z" />
            <path d="m 600.8,711.2 h 5 V 709 l -5,-3.6 z" />
            <path d="m 594.3,717.7 v 2.8 l 0.7,-2.8 z" />
            <path d="m 597.9,722 2.2,-1.5 -2.9,1.5 z" />
        </g>
        <g id="Chiba" class="kitsun-click">
            <path d="m 623.8,656.5 -0.7,-9.3 -0.7,-10.1 2.9,2.9 9.3,0.7 0.7,2.9 8.7,-0.8 4.3,-2.8 h 6.5 l 2.1,0.7 6.5,6.5 h 2.9 l 2.1,4.3 -7.9,0.7 -7.9,5.7 -2.2,8.7 -0.7,10.1 -2.8,5.7 -2.2,3.6 -10.8,2.2 -5.8,5.7 -0.7,2.2 -2.9,2.1 -2.8,0.8 v -5.8 l 1.4,-5.8 -1.4,-5 1.4,-4.3 -2.2,-0.7 v -2.9 l 13,-15.1 v -2.2 l -4.3,-3.6 z" />
        </g>
    </g>

    <g id="Region-Chubu">
        <g id="Aichi" class="kitsun-click">
            <path d="m 469.9,684.6 1.4,-0.8 v -2.1 l 5,-7.2 10.1,-1.4 7.9,4.3 10.1,2.8 h 8.6 l 12.3,1.5 0.7,5.7 -9.4,14.4 -5.7,3.6 v 9.4 h -5.8 l -10.1,4.3 h -3.6 v -2.2 l 10.8,-6.4 -0.7,-2.9 -10.8,0.7 -2.1,-1.4 -0.8,-4.3 -2.1,5 1.4,5 -5,-2.1 v -4.3 l -2.2,-3.6 V 699 l 4.3,-5.1 -2.8,-2.1 -5.8,2.1 z" />
        </g>
        <g id="Niigata" class="kitsun-click">
            <path d="m 569.9,589.6 2.1,-1.4 h 2.9 l 3.6,-4.4 2.9,-6.4 h 3.6 l 6.4,1.4 1.5,-2.2 -0.7,-5.7 -4.3,-8.6 1.4,-5.1 -2.2,-2.1 1.5,-4.4 12.2,-4.3 4.3,-2.1 -2.1,-2.2 v -2.9 l 4.3,-2.1 2.1,-5.8 3.6,-2.9 -5.7,-4.3 3.6,-10.8 -2.2,-1.4 2.9,-5 h 2.2 l 3.6,-3.6 v -2.9 l -4.4,-4.3 h -2.8 l -0.8,-7.2 -5,-3.6 -1.4,3.6 -5.1,10 v 13.7 l -23,16.6 -3.6,3.6 -2.9,12.2 -7.2,6.5 -2.8,6.4 -11.6,10.1 h -5.7 l -9.4,5.8 -5,4.3 -6.5,2.9 2.2,7.9 4.3,-3.6 1.4,-2.9 h 5.8 l 2.9,5 10,-2.8 3.6,-4.4 3.6,-3.6 h 4.3 l 5.1,6.5 z" />
            <path d="m 544,531.3 7.2,-0.7 7.1,-7.2 0.8,-7.2 -4.3,1.4 v -6.4 l 1.4,-3.6 -0.7,-5.8 -8.7,8.6 -2.1,8.7 4.3,2.9 v 2.8 z" />
        </g>
        <g id="Toyama" class="kitsun-click">
            <path d="m 519.5,580.2 2.2,8.7 0.7,2.9 v 5.7 l -5.1,8.6 v 2.9 l -2.1,4.3 -11.5,-2.8 -10.8,0.7 -3.6,4.3 -3.6,5 -2.2,-3.6 h -5 l -0.7,-7.2 1.4,-2.8 0.7,-15.9 2.2,-5 2.9,-2.2 0.7,-2.8 h 5 v 8.6 l 2.2,3.6 9.3,0.7 2.9,-1.4 4.3,-8.7 4.3,-3.6 z" />
        </g>
        <g id="Ishikawa" class="kitsun-click">
            <path d="m 490.7,581 h -5 l -0.7,2.8 -2.9,2.2 -2.2,5 -0.7,16.6 -1.4,2.1 0.7,7.2 -0.7,4.4 0.7,3.5 -2.2,1.5 -0.7,4.3 -5,2.2 -1.5,-4.4 -3.6,-1.4 h -6.4 l -3.6,-3.6 -2.9,-1.4 10.8,-8.7 8.6,-15.8 3.6,-3.6 2.9,-10.1 -2.2,-2.8 0.7,-7.2 -2.8,-5.8 1.4,-3.6 0.7,-5 7.2,-3.6 h 4.3 l 14.4,-7.9 2.9,4.3 -4.3,4.3 -0.7,4.3 -3.6,2.2 -2.2,-0.8 -5,5.8 -4.3,-1.4 -1.5,5.7 3.6,3.6 2.9,-0.7 z" />
        </g>
        <g id="Fukui" class="kitsun-click">
            <path d="m 452.6,622 2.9,1.4 2.8,3.6 h 6.5 l 3.6,1.4 2.2,5.1 7.2,11.5 -0.8,5 -10,1.5 h -8.7 l -5,5.7 -2.2,0.7 -1.4,2.2 -2.9,2.2 -12.2,5 -1.4,7.2 -2.2,1.4 -2.9,-2.1 -10.1,-2.2 -1.4,-3.6 -1.4,-6.5 2.8,0.8 2.2,0.7 0.7,2.9 h 2.9 v -1.5 h 2.2 v 2.9 l 3.6,-0.7 V 663 l 2.1,0.7 2.2,-1.4 v -2.9 l 3.6,-0.7 3.6,-2.2 v -3.6 h 2.9 l 2.8,2.9 -0.7,-7.2 -5,-10.8 v -2.9 l 7.2,-10.8 z" />
        </g>
        <g id="Yamanashi" class="kitsun-click">
            <path d="m 568.4,641.4 2.9,2.9 h 8.6 l 0.8,3.6 7.9,6.4 v 2.9 3.6 l -0.7,2.2 -9.4,5 v 2.2 h -3.6 l -5,1.4 h -5.1 l -2.9,-2.1 h -3.5 V 681 l -2.9,2.8 -3.6,-4.3 -0.7,-3.6 h -4.4 v -5.7 l -0.7,-4.3 v -5.8 l -2.1,-2.2 v -5 -6.5 l 7.9,-6.4 2.9,1.4 6.4,1.4 z" />
        </g>
        <g id="Nagano" class="kitsun-click">
            <path d="m 521.7,588.2 5,-2.9 0.7,-2.9 h 6.5 l 2.1,5 10.8,-2.8 7.2,-8 h 4.3 l 5.1,7.2 6.5,5.8 -1.5,5.7 -4.3,0.8 -2.9,-0.8 -7.9,7.2 0.7,7.2 h 3.6 l 5.8,2.9 -1.5,7.2 0.8,12.2 2.1,3.6 2.9,1.5 0.7,3.6 -7.2,2.1 -6.4,-1.4 -2.9,-1.4 -7.9,6.4 v 6.5 5 l -2.2,0.8 -2.2,7.9 -0.7,6.5 -4.3,4.3 -9.3,4.3 -12.3,-1.4 2.2,-8.7 2.1,-2.9 -0.7,-4.3 -2.9,-2.1 v -2.9 l -3.6,-5.8 -5,-5.7 -0.7,-2.9 5.7,-3.6 3.6,-4.3 1.5,-3.6 -1.5,-7.9 2.9,-5.8 -0.7,-3.6 -0.7,-3.6 2.1,-3.6 v -2.9 l 5.1,-8.6 z" />
        </g>
        <g id="Gifu" class="kitsun-click">
            <path d="m 453.3,657.2 5,-5 8,-0.7 10,-1.5 1.5,-5.7 -7.9,-11.5 5.7,-2.9 v -3.6 l 2.9,-1.5 -0.7,-3.5 v -4.4 h 5.7 l 2.2,3.6 3.6,-5.7 2.9,-3.6 11.5,-0.7 11.5,2.8 1.4,6.5 -3.6,6.5 1.5,7.2 -0.8,3.6 -4.3,5 -5,2.9 0.7,2.2 5,6.4 3.6,5.1 v 3.6 l 2.9,2.8 0.7,3.6 -2.1,2.9 -2.2,8.7 h -8.6 l -10.1,-2.9 -7.9,-4.3 -10.1,1.4 -5,7.2 v 2.9 h -2.2 l -2.8,-2.9 -4.4,-0.7 -1.4,-10.8 z" />
        </g>
        <g id="Shizuoka" class="kitsun-click">
            <path d="m 525.3,681.7 8.6,-5 5,-3.6 0.7,-6.5 2.9,-7.9 1.5,-0.8 1.4,2.2 0.7,5.8 0.7,5 v 5 h 3.6 l 0.8,3.6 4.3,4.3 2.9,-2.8 v -11.5 h 3.5 l 2.9,2.1 h 5.1 l 4.3,-1.4 h 4.3 l 2.9,2.9 v 6.4 2.2 l 7.2,4.3 -0.7,8.6 2.1,4.4 -7.2,11.5 v 4.3 h -3.6 l -2.1,2.9 h -2.2 l -1.4,-7.2 -0.8,-17.3 4.4,-0.7 -5.1,-5.8 -7.2,0.7 -4.3,4.4 -0.7,5 -7.2,2.9 -2.9,9.3 -2.9,2.2 -1.4,6.5 -7.2,-2.9 -7.2,0.7 -3.6,2.2 -8.6,-2.9 h -7.9 v -9.4 l 5.7,-4.3 9.4,-14.4 z" />
        </g>
    </g>

    <g id="Region-Kansai">
        <g id="Mie" class="kitsun-click">
            <path d="m 461.9,680.3 4.4,1.4 2.1,2.9 h 2.2 l 4.3,8.6 -2.2,3.6 -1.4,8.6 -4.3,3.6 -0.7,7.2 7.1,5.8 5.8,3.6 5.8,3.6 -0.8,7.9 -5,1.4 1.4,-2.8 h -7.2 l -11.5,5.7 h -4.3 l -1.4,1.4 v 3.6 l -3.6,1.5 0.7,7.9 -7.9,5.8 -3.6,10 -7.9,-6.4 0.7,-5.1 4.3,-2.9 v -4.3 l 5.8,-4.3 v -9.3 l 0.7,-4.4 -2.2,-2.1 v -4.3 l 6.5,-0.8 2.2,-1.4 -2.2,-5 -3.6,-0.8 -2.9,-3.6 v -5 l -2.1,-1.4 1.4,-3.6 3.6,-4.3 h 6.5 l 3.6,-2.9 2.1,-4.3 2.2,-1.5 v -7.2 z" />
        </g>
        <g id="Shiga" class="kitsun-click">
            <path d="m 431,675.9 2.2,-1.4 0.7,-7.2 12.9,-5 2.9,-2.2 1.4,-2.2 h 2.2 l 7.2,13 1.4,10.1 -1.4,5.7 v 7.9 l -2.2,0.8 -2.1,4.3 -3.6,2.9 h -6.5 l -4.3,5 -5,-5 -4.4,-10.8 z" />
        </g>
        <g id="Kyoto" class="kitsun-click">
            <path d="m 414.4,661.5 3.6,10.1 10.1,2.2 2.9,2.1 1.4,16.6 4.4,10.1 5,5 -0.7,2.1 -9.4,1.5 -2.9,-2.2 -0.7,-4.3 -0.7,-6.5 -4.3,-0.7 v -2.9 l -4.3,-3.6 -12.3,-5 -5.7,-7.9 -5.8,-0.7 -3.6,-2.9 v -2.2 h 3.6 l 0.7,-2.1 v -5.8 l -5.7,-2.9 -1.5,-4.3 5.8,-0.7 4.3,-4.3 h 9.4 l -2.9,10.1 3.6,1.4 1.4,3.6 2.9,-0.7 z" />
        </g>
        <g id="Osaka" class="kitsun-click">
            <path d="m 423.1,697.5 4.3,0.7 0.7,10.8 3.6,2.2 -7.9,9.3 -0.7,9.4 -18,5 h -7.2 l 8.6,-4.3 6.5,-5.7 2.9,-8 -2.9,-6.4 1.4,-9.4 -4.3,-4.3 v -2.9 h 2.9 l 5,5.1 z" />
        </g>
        <g id="Hyogo" class="kitsun-click">
            <path d="m 388.5,656.5 1.5,5.8 5.7,2.1 v 5.8 l -1.4,2.1 h -2.9 v 2.2 l 3.6,2.9 5.8,0.7 5.7,7.9 12.3,5 4.3,3.6 v 2.9 l -5.1,1.5 -5.7,-5.1 h -2.2 v 2.9 l 4.3,4.3 -1.4,9.4 -6.5,1.4 -5,4.3 h -5 l -18.7,-10 -11.6,3.6 -6.4,0.7 0.7,-5.8 -2.9,-4.3 2.2,-11.5 5.7,-4.3 -0.7,-2.9 5.8,-4.3 0.7,-5.1 -2.9,-7.9 -4.3,-5 7.2,-2.2 z" />
            <path d="m 377,734.9 5.1,-4.3 V 727 l 10,-7.9 1.5,2.9 -3.6,3.6 0.7,12.2 -6.5,3.6 z" />
        </g>
        <g id="Nara" class="kitsun-click">
            <path d="m 423.1,729.9 0.7,-10.1 7.9,-8.6 8.7,-1.4 2.8,2.1 v 5 l 2.9,3.6 3.6,0.8 2.2,5 -2.2,1.4 -6.5,0.8 v 4.3 l 2.2,2.9 -0.7,3.6 v 9.3 l -6.5,3.6 v 5 l -3.6,2.9 h -14.4 l -0.7,-8.6 v -5.1 l 6.5,-6.4 -1.5,-5.1 v -4.3 z" />
        </g>
        <g id="Wakayama" class="kitsun-click">
            <path d="m 397.9,734.9 h 7.9 l 17.3,-5 1.4,0.7 v 4.3 l 0.7,5.1 -6.4,7.2 0.7,4.3 0.7,8.6 h 13.7 v 5.1 l 7.2,6.4 -2.2,5.8 -8.6,7.9 -3.6,0.7 -7.2,-4.3 -6.5,-2.9 -2.9,-7.9 -2.8,-5 -8.7,-5.8 -0.7,-5.7 2.2,-1.5 -0.8,-2.9 -2.1,-1.4 0.7,-3.6 z" />
        </g>
    </g>

    <g id="Region-Chugoku">
        <g id="Tottori" class="kitsun-click">
            <path d="m 363.4,659.4 5,5 2.9,7.9 -0.7,5.8 -5.8,3.6 h -3.6 l -5,0.7 -5.1,-5.7 -5,-1.5 -3.6,2.2 h -7.2 l -2.2,-2.9 h -3.6 l -16.5,15.8 -5.8,-3.6 0.8,-7.9 5.7,-3.6 v -10.1 l 5.8,0.8 7.2,-3.6 13.6,2.1 z" />
        </g>
        <g id="Shimane" class="kitsun-click">
            <path d="m 313.7,665.1 v 10.1 l -5.7,3.6 -0.8,7.9 -12.9,-1.4 -5.8,2.1 -1.4,2.2 v 2.2 l -3.6,5 -5.8,3.6 -7.2,0.7 -4.3,1.5 -2.8,-0.8 -5.1,3.6 -3.6,10.8 -1.4,5.8 -1.5,6.5 h -4.3 l -7.9,2.8 1.4,-6.4 v -4.4 l -2.1,-3.6 -3.6,-3.6 v -5 l 6.5,-0.7 21.6,-18.7 6.4,-3.6 5.1,-7.2 7.9,-3.6 3.6,-3.6 -2.2,-5 20.2,-7.2 7.9,1.4 z" />
        </g>
        <g id="Okayama" class="kitsun-click">
            <path d="m 312.3,690.3 16.5,-15.8 h 4.3 l 2.2,2.2 7.2,0.7 2.9,-2.2 5,1.5 5,5.7 5.8,-1.4 3.6,0.7 v 2.9 l -5.8,3.6 -1.4,12.2 2.9,5 -0.7,5.1 -5.1,2.8 -2.1,3.6 h -7.9 l -1.5,1.5 h 5.8 l -6.5,6.5 h -4.3 l -6.5,-3.6 -8.6,2.8 -0.8,-2.1 h -2.1 l -2.9,-4.3 z" />
        </g>
        <g id="Hiroshima" class="kitsun-click">
            <path d="m 251.8,728.5 2.2,-7.2 0.7,-5.8 2.9,-10.1 5.8,-3.6 2.8,0.8 4.3,-2.2 h 7.2 l 5.8,-3.6 3.6,-5 v -2.9 l 7.2,-3.6 12.9,1.4 5.8,3.6 4.3,28.1 2.9,3.6 -5.8,8.6 -2.8,-3.6 -3.6,2.9 v 3.6 l -6.5,0.7 3.6,-5 -2.2,-1.5 -4.3,2.9 h -7.2 l -7.9,5.8 -6.5,0.7 -1.4,-5 -2.9,-3.6 -5,0.7 -5.8,7.2 -6.5,-6.5 z" />
            <path d="m 297.2,738.5 h 3.6 v -2.1 l -0.8,-2.9 z" />
            <path d="m 273.4,742.8 4.3,2.2 -0.7,-2.9 v -3.6 h -2.1 z" />
        </g>
        <g id="Yamaguchi" class="kitsun-click">
            <path d="m 235.3,708.3 -0.7,5 4.3,3.6 2.1,4.4 v 3.6 l -2.1,5.7 8.6,-2.1 h 4.3 l 4.4,1.4 5.7,6.5 -1.4,2.9 v 3.6 l 0.7,5 -4.3,3.6 -0.7,7.2 -2.9,2.1 v -7.2 l -7.2,-2.1 -2.9,-2.9 -3.6,1.4 v -5.7 l -9.3,3.6 -1.5,-1.5 h -4.3 l -1.4,1.5 -1.5,-3.6 -4.3,5.7 -5.8,-0.7 -4.3,-7.2 -7.2,5.8 -3.6,-10.8 2.9,-1.4 -0.7,-3.6 -1.4,-3.6 7.2,-7.2 3.6,-0.8 3.5,2.9 1.5,-2.1 2.9,2.1 5,-0.7 4.3,-3.6 1.5,-2.9 6.4,-7.2 z" />
            <path d="m 260.5,752.2 -0.7,2.9 2.1,1.4 8.6,-1.4 1.5,-2.9 h -7.9 z" />
        </g>
    </g>

    <g id="Region-Shikoku">
        <g id="Tokushima" class="kitsun-click">
            <path d="m 328.1,746.4 h 7.2 l 2.9,-1.4 7.9,0.7 6.5,-3.6 h 4.3 l 2.9,-1.4 h 6.4 l 2.2,-1.4 5,-0.8 2.9,2.9 -0.7,2.2 -2.2,2.8 v 5.8 l 4.4,3.6 v 7.9 l -7.2,5.8 -7.2,2.8 -3.6,7.2 -7.2,-2.8 -2.9,-5.8 -2.9,-0.7 -0.7,-5 -2.9,-2.9 -5.7,1.4 -2.2,-2.1 h -3.6 l -3.6,-3.6 z" />
        </g>
        <g id="Kagawa" class="kitsun-click">
            <path d="m 328.1,746.4 h 7.2 l 2.9,-2.1 7.9,0.7 6.5,-2.9 h 4.3 l 2.1,-2.1 7.2,0.7 1.5,-1.4 -7.2,-3.6 -2.9,-3.6 h -2.9 l -1.4,-2.2 -3.6,-0.7 -9.4,2.1 -0.7,2.2 -4.3,2.9 h -7.9 v 3.6 l 1.4,2.1 z" />
            <path d="m 356.2,724.9 3.6,-0.8 0.7,-2.1 -0.7,-2.2 h -2.9 z" />
        </g>
        <g id="Ehime" class="kitsun-click">
            <path d="M 328.1,746.4 V 758 l -7.2,2.8 -11.5,0.8 -7.9,5 -2.9,5 -2.1,7.2 -2.2,2.2 -5.8,0.7 1.5,2.9 -0.7,2.1 -0.8,4.4 -7.9,8.6 -9.3,0.7 -3.6,-3.6 6.4,-2.1 v -2.9 l -2.1,-2.2 h -5.1 v -6.5 l -2.1,-2.1 -10.1,5 -4.3,1.5 5.8,-6.5 7.9,-2.2 3.6,-4.3 10,-4.3 5.1,-5 4.3,-13.7 6.5,-4.3 2.1,-2.9 2.9,2.1 3.6,7.2 h 7.2 l 8.6,-2.1 5.8,-0.7 z" />
        </g>
        <g id="Kochi" class="kitsun-click">
            <path d="m 271.3,800.4 10,-1.4 7.2,-7.9 1.5,-6.5 -1.5,-2.9 h 5.8 l 2.9,-3.6 1.4,-7.2 2.9,-3.6 7.9,-6.5 h 11.5 l 7.2,-2.8 3.6,3.6 h 4.3 l 1.5,2.1 5.7,-1.4 3.6,3.6 v 4.3 l 2.9,0.7 2.9,5.8 7.2,2.1 -4.4,7.2 -2.8,10.1 -9.4,-11.5 -5,-4.3 -3.6,-1.5 -8.7,0.7 -7.1,6.5 -8.7,2.9 -0.7,6.5 -7.9,9.3 v 2.9 l -5.1,-0.7 -0.7,5.7 -2.1,2.2 v 5.8 l 2.8,5 -4.3,-4.3 h -3.6 l -3.6,2.1 -6.4,-3.6 V 817 l 2.1,-1.5 -0.7,-4.3 h -9.4 l -0.7,-4.3 z" />
        </g>
    </g>

    <g id="Region-Kyushu">
        <g id="Fukuoka" class="kitsun-click">
            <path d="m 159,772.3 0.7,-5 3.6,-2.9 3.6,0.8 2.9,2.1 2.9,-0.7 -1.4,-5 3.6,-1.5 1.4,-2.1 0.7,-5.1 7.2,-2.1 2.2,-2.2 10.8,2.2 3.6,-0.8 4.3,16.6 4.3,1.4 v 2.9 l -3.6,2.2 -8.6,0.7 -2.9,2.9 -3.6,5.7 v 5.8 l 1.4,5 -1.4,3.6 h -2.2 l -2.1,-2.9 H 182 l -7.1,4.4 -4.4,2.8 v -4.3 l -3.6,-4.3 3.6,-5.8 3.6,-1.4 1.5,-2.9 -2.9,-2.1 -0.7,-2.2 -3.6,-4.3 z" />
        </g>
        <g id="Saga" class="kitsun-click">
            <path d="m 159,772.3 9.4,1.5 5,7.2 2.2,0.7 -1.5,3.6 -3.6,0.7 -3.6,6.5 -2.8,-1.4 h -2.9 l -2.9,2.8 2.2,6.5 v 3.6 l -6.5,-2.2 -1.5,-2.1 -3.5,-1.4 -5.1,-10.1 -2.1,0.7 -1.5,-2.9 v -5 h 3.6 l 2.2,-2.2 -2.9,-4.3 2.2,-1.4 1.4,-2.2 3.6,-0.7 2.1,3.6 z" />
        </g>
        <g id="Nagasaki" class="kitsun-click">
            <path d="M 143.9,781 H 141 l -0.7,5.7 1.5,2.2 2.1,-0.7 5.1,10 3.5,1.5 0.8,1.4 7.9,2.9 -3.6,5.8 h 5.7 l 3.6,1.4 v 6.5 l -1.4,3.6 -7.2,1.4 h -2.2 v -2.9 l 1.5,-5.7 -3.6,-1.5 -5,1.5 -9.4,10.1 -1.4,-1.5 1.4,-10.1 -7.2,-8.6 1.4,-4.3 2.9,-3.6 4.3,5 v 6.5 l 6.5,0.7 0.7,-3.6 -2.1,-4.3 -4.3,-5 h -2.9 l -2.9,-6.5 -5,-1.4 1.4,-9.4 8.6,1.4 z" />
            <path d="m 129.5,776.7 2.2,1.4 -4.3,7.9 h -3.6 v -2.9 z" />
            <path d="m 102.9,799.7 5,-5 1.5,3.5 -2.2,3.6 -3.6,5.1 0.7,-4.3 z" />
            <path d="m 84.91,809 h 7.92 l 2.88,5.8 -5.04,0.7 -2.88,1.5 h -5.76 z" />
            <path d="m 139.6,750.8 v 7.2 l 3.6,-1.5 V 750 l -2.2,-0.7 z" />
            <path d="m 118.7,722.7 h 4.3 l 2.2,2.2 -3.6,7.2 -2.9,2.8 -2.8,-2.1 z" />
            <path d="m 121.6,718.4 h 4.3 v 2.9 l 1.5,-8 4.3,-2.8 1.4,-2.9 -0.7,-5.8 -2.2,-1.4 -5,2.2 v 5.7 z" />
        </g>
        <g id="Kumamoto" class="kitsun-click">
            <path d="m 170.5,801.1 5.1,-3.6 6.4,-3.6 4.4,0.8 1.4,1.4 3.6,0.7 1.4,2.9 5.1,-1.4 -0.7,-3.6 2.8,-1.5 4.4,0.7 2.8,5.1 2.2,1.4 v 5 l 0.7,9.4 -7.9,7.9 -2.9,2.2 -0.7,6.4 0.7,6.5 0.7,6.5 -1.4,6.5 -5,0.7 -2.2,2.2 h -10.1 l -3.6,-4.4 -16.5,1.5 14.4,-15.9 v -3.6 l 5,-7.1 -7.9,-2.2 4.3,-4.3 h 4.3 l -0.7,-2.9 -6.5,-5.8 -2.8,-2.8 z" />
            <path d="m 160.5,830.6 9.3,-2.1 v 2.8 l -2.1,2.2 v 2.9 l -6.5,-1.5 z" />
            <path d="m 150.4,827 4.3,-0.7 2.9,1.4 0.7,10.8 -7.9,6.5 h -2.9 v -2.9 l 2.9,-1.4 -2.2,-2.9 v -5 z" />
        </g>
        <g id="Oita" class="kitsun-click">
            <path d="m 191.4,796.1 0.7,-2.9 -1.4,-4.3 0.7,-6.5 2.9,-6.5 3.6,-2.1 8.6,-0.7 2.9,-2.9 V 768 l 4.3,2.9 h 8.6 l 5.1,-5 h 3.6 l 5,6.4 v 5.8 l -2.1,2.9 -5.8,3.6 h -3.6 l 0.7,3.6 16.6,3.6 -1.5,7.9 6.5,2.9 -4.3,4.3 5,3.6 -2.1,2.9 v 3.6 h -3.6 l -2.2,4.3 -2.2,-5.8 -6.4,0.7 -8.7,1.5 -1.4,-3.6 -10.8,-1.5 -0.7,-12.2 -2.2,-1.4 -2.8,-5.1 -4.4,-0.7 -2.8,1.5 0.7,3.6 -5.1,1.4 z" />
        </g>
        <g id="Miyazaki" class="kitsun-click">
            <path d="m 181.3,853.7 h 10.1 l 2.9,-2.2 4.3,-0.7 1.4,-6.5 v -7.2 l -0.7,-6.5 v -5.7 l 10.8,-9.4 v -2.9 l 10.8,2.2 1.4,2.9 15.2,-2.2 2.1,5.8 -8.6,8.6 1.4,4.3 -3.6,2.9 -7.2,15.8 v 7.2 l -5.7,10.1 2.8,3.6 -6.4,18 -3.6,4.3 -5.8,-3.6 h -2.1 v -4.3 l 0.7,-5 -6.5,-2.2 -2.2,-2.2 0.8,-4.3 -4.4,-2.9 -0.7,-3.6 z" />
        </g>
        <g id="Kagoshima" class="kitsun-click">
            <path d="m 161.2,850.8 16.5,-1.5 2.9,4.4 7.9,13.6 v 4.3 l 4.3,2.2 v 5 l 1.5,2.2 7.2,2.2 -1.5,5.7 v 3.6 h -2.8 l -2.9,3.6 4.3,7.2 -7.2,3.6 -0.7,3.6 -12.2,5.7 -1.5,-2.8 4.3,-5.8 2.2,-7.2 -0.7,-6.5 -4.3,-2.8 -2.2,-5.8 v -3.6 l 5.7,2.2 2.9,-2.9 v -3.6 l -5,-1.4 -2.9,0.7 -4.3,5 -3.6,8.6 2.2,5.1 3.6,7.9 v 2.9 l -2.9,2.1 -6.5,-5.7 -9.4,-1.5 -3.6,-5.7 v -2.9 l 5.8,-2.2 2.2,-2.8 0.7,-4.3 -0.7,-7.2 -5.1,-3.6 0.7,-18 1.5,-3.6 z" />
            <path d="m 184.2,953.7 5,-1.5 1.5,-7.9 2.1,-2.1 2.2,-8.7 0.7,-4.3 h -2.9 l -5,7.9 v 5.8 l -3.6,5 z" />
            <path d="m 159,952.2 6.5,-4.3 7.2,4.3 v 4.3 l -3.6,4.4 h -6.5 z" />
            <path d="m 90.67,1073 6.47,5 6.46,-1 v -4 l 13.7,-9 v -3 l -23.03,6 v 4 z" />
            <path d="m 89.95,1080 7.92,2 -7.2,-5 z" />
            <path d="m 129.5,1072 2.2,2 1.4,-4 z" />
        </g>
        <g id="Okinawa" class="kitsun-click" transform="translate(57.57,186.5)">
            <path d="m 320,219.7 5.1,-3.6 -0.7,-3.6 1.4,-6.4 4.3,-0.7 -2.1,-2.9 0.7,-2.9 6.5,-3.6 2.1,-2.9 5.8,-1.4 -0.7,-3.6 4.3,-1.5 4.3,-4.3 0.7,-3.6 -0.7,-3.6 -2.9,-1.4 -7.2,7.9 -0.7,4.3 -12.2,-1.4 v 2.1 l 5,5.1 -11.5,7.2 -0.7,9.3 -3.6,2.9 v 5.8 z" />
            <path d="m 268.2,202.5 4.4,0.7 -0.8,4.3 z" />
            <path d="m 191.3,291 v 4.3 5.7 l 9.3,-2.8 -6.5,-2.2 -0.7,-2.9 z" />
            <path d="m 128.7,314.7 1.4,7.2 6.5,-1.4 -0.7,-5.1 4.3,-5 0.7,-4.3 H 138 l 0.7,2.9 -5,5.7 z" />
            <path d="m 105.6,321.9 h 4.3 l 0.8,-5.7 7.9,1.4 1.4,1.4 v 2.2 l -4.3,4.3 -10.1,-0.7 z" />
        </g>
    </g>

    <g id="Capitals" transform="rotate(5,500,500)">
        <use id="Akita-Akita" x="620" y="403" height="100%" width="100%" xlink:href="#CapitalMarker" transform="translate(-2.001)" />
        <use id="Hokkaido-Sapporo" x="650" y="206" width="100%" height="100%" xlink:href="#CapitalMarker" transform="translate(-2.001)" />
        <use id="Fukuoka-Fukuoka" x="201" y="794" height="100%" width="100%" xlink:href="#CapitalMarker" />
        <use id="Saga-Saga" x="187" y="813" height="100%" width="100%" xlink:href="#CapitalMarker" />
        <use id="Nagasaki-Nagasaki" x="172" y="840" height="100%" width="100%" xlink:href="#CapitalMarker" transform="translate(0,2.001)" />
        <use id="Kumamoto-Kumamoto" x="225.4" y="364.3" height="100%" width="100%" xlink:href="#CapitalMarker" transform="translate(-12.54,480.3)" />
        <use id="Oita-Oita" x="0" y="0" height="100%" width="100%" xlink:href="#CapitalMarker" transform="translate(258.4,813.8)" />
        <use id="Miyazaki-Miyazaki" x="0" y="0" height="100%" width="100%" xlink:href="#CapitalMarker" transform="translate(248.4,886)" />
        <use id="Kagoshima-Kagoshima" x="0" y="0" height="100%" width="100%" xlink:href="#CapitalMarker" transform="translate(204.8,906.8)" />
        <use id="Okinawa-Naha" x="0" y="0" height="100%" width="100%" xlink:href="#CapitalMarker" transform="translate(377,397)" />
        <use id="Tokushima-Tokushima" x="0" y="0" height="100%" width="100%" xlink:href="#CapitalMarker" transform="translate(391,757.1)" />
        <use id="Kagawa-Takamatsu" x="0" y="0" height="100%" width="100%" xlink:href="#CapitalMarker" transform="translate(369,743.1)" />
        <use id="Ehime-Matsuyama" x="0" y="0" height="100%" width="100%" xlink:href="#CapitalMarker" transform="translate(311.2,770.9)" />
        <use id="Kochi-Kochi" x="0" y="0" height="100%" width="100%" xlink:href="#CapitalMarker" transform="translate(343.9,791.7)" />
        <use id="Tottori-Tottori" x="0" y="0" height="100%" width="100%" xlink:href="#CapitalMarker" transform="translate(367.9,676.9)" />
        <use id="Shimane-Matsue" x="0" y="0" height="100%" width="100%" xlink:href="#CapitalMarker" transform="translate(320.7,677.9)" />
        <use id="Okayama-Okayama" x="0" y="0" height="100%" width="100%" xlink:href="#CapitalMarker" transform="translate(363,725.9)" />
        <use id="Hiroshima-Hiroshima" x="0" y="0" height="100%" width="100%" xlink:href="#CapitalMarker" transform="translate(291.1,742)" />
        <use id="Yamaguchi-Yamaguchi" x="0" y="0" height="100%" width="100%" xlink:href="#CapitalMarker" transform="translate(245.1,755.8)" />
        <use id="Mie-Tsu" x="0" y="0" height="100%" width="100%" xlink:href="#CapitalMarker" transform="translate(482.2,713.6)" />
        <use id="Shiga-Otsu" x="0" y="0" height="100%" width="100%" xlink:href="#CapitalMarker" transform="translate(457.8,704.1)" />
        <use id="Kyoto-Kyoto" x="0" y="0" height="100%" width="100%" xlink:href="#CapitalMarker" transform="translate(448.8,704.9)" />
        <use id="Osaka-Osaka" x="0" y="0" height="100%" width="100%" xlink:href="#CapitalMarker" transform="translate(435.7,716.2)" />
        <use id="Hyogo-Kobe" x="0" y="0" height="100%" width="100%" xlink:href="#CapitalMarker" transform="translate(420.7,718.1)" />
        <use id="Nara-Nara" x="0" y="0" height="100%" width="100%" xlink:href="#CapitalMarker" transform="translate(453.1,716.3)" />
        <use id="Wakayama-Wakayama" x="0" y="0" height="100%" width="100%" xlink:href="#CapitalMarker" transform="translate(421,747.2)" />
        <use id="Aichi-Nagoya" x="0" y="0" height="100%" width="100%" xlink:href="#CapitalMarker" transform="translate(499,688.4)" />
        <use id="Niigata-Niigata" x="0" y="0" height="100%" width="100%" xlink:href="#CapitalMarker" transform="translate(582.3,519.8)" />
        <use id="Toyama-Toyama" x="0" y="0" height="100%" width="100%" xlink:href="#CapitalMarker" transform="translate(505.4,595.5)" />
        <use id="Ishikawa-Kanazawa" x="0" y="0" height="100%" width="100%" xlink:href="#CapitalMarker" transform="translate(482.6,599.3)" />
        <use id="Fukui-Fukui" x="0" y="0" height="100%" width="100%" xlink:href="#CapitalMarker" transform="translate(462.5,633)" />
        <use id="Yamanashi-Kofu" x="0" y="0" height="100%" width="100%" xlink:href="#CapitalMarker" transform="translate(572.8,645)" />
        <use id="Nagano-Nagano" x="0" y="0" height="100%" width="100%" xlink:href="#CapitalMarker" transform="translate(549.3,590.8)" />
        <use id="Gifu-Gifu" x="0" y="0" height="100%" width="100%" xlink:href="#CapitalMarker" transform="translate(493.5,669.1)" />
        <use id="Shizuoka-Shizuoka" x="0" y="0" height="100%" width="100%" xlink:href="#CapitalMarker" transform="translate(572.5,686.6)" />
        <use id="Gunma-Maebashi" x="0" y="0" height="100%" width="100%" xlink:href="#CapitalMarker" transform="translate(593.1,602)" />
        <use id="Tochigi-Utsunomiya" x="0" y="0" height="100%" width="100%" xlink:href="#CapitalMarker" transform="translate(624.2,587.3)" />
        <use id="Ibaraki-Mito" x="0" y="0" height="100%" width="100%" xlink:href="#CapitalMarker" transform="translate(657.6,598.4)" />
        <use id="Saitama-Saitama" x="0" y="0" height="100%" width="100%" xlink:href="#CapitalMarker" transform="translate(623.7,627)" />
        <use id="Kanagawa-Yokohama" x="0" y="0" height="100%" width="100%" xlink:href="#CapitalMarker" transform="translate(622,653.6)" />
        <use id="Tokyo-Shinjuku" x="0" y="0" height="100%" width="100%" xlink:href="#CapitalMarker" transform="translate(627.7,639)" />
        <use id="Chiba-Chiba" x="0" y="0" height="100%" width="100%" xlink:href="#CapitalMarker" transform="translate(649.7,643)" />
        <use id="Yamagata-Yamagata" x="0" y="0" height="100%" width="100%" xlink:href="#CapitalMarker" transform="translate(635.6,490.2)" />
        <use id="Miyagi-Sendai" x="0" y="0" height="100%" width="100%" xlink:href="#CapitalMarker" transform="translate(665.4,486.6)" />
        <use id="Iwate-Morioka" x="0" y="0" height="100%" width="100%" xlink:href="#CapitalMarker" transform="translate(662.3,402.8)" />
        <use id="Fukushima-Fukushima" x="0" y="0" height="100%" width="100%" xlink:href="#CapitalMarker" transform="translate(646.3,515)" />
        <use id="Aomori-Aomori" x="0" y="0" height="100%" width="100%" xlink:href="#CapitalMarker" transform="translate(637.7,341.5)" />
        </g>
    </g>
</g>

</svg>
